<svg viewBox="0 0 24 24" xmlns="http://www.w3.org/2000/svg" data-name="Layer 11">
  <path d="M18.929 21H5.071a2.025 2.025 0 01-2.05-2.283l1.479-10A2.049 2.049 0 016.549 7h10.9A2.049 2.049 0 0119.5 8.717l1.479 10A2.025 2.025 0 0118.929 21z" fill="#ccedff"/>
  <path d="M21 19a2.035 2.035 0 01-2.07 2H5.07a2.024 2.024 0 01-2.05-2.28l1.48-10c.292-1.512 1.9-1.68 2.89-1.71l-1.44 9.71A2.024 2.024 0 008 19z" fill="#fff"/>
  <g fill="#1aadff">
    <path d="M21.968 18.571l-1.479-10A3.065 3.065 0 0017.45 6H6.55a3.065 3.065 0 00-3.039 2.571l-1.479 10a2.953 2.953 0 00.69 2.363A3.094 3.094 0 005.07 22h13.86a3.094 3.094 0 002.348-1.066 2.953 2.953 0 00.69-2.363zm-2.205 1.056a1.093 1.093 0 01-.833.373H5.07a1.093 1.093 0 01-.833-.373.94.94 0 01-.227-.763l1.479-10A1.053 1.053 0 016.55 8h10.9a1.053 1.053 0 011.061.864l1.479 10a.94.94 0 01-.227.763z"/>
    <path d="M12 2a4 4 0 00-4 4v4a1 1 0 002 0V6a2 2 0 014 0v4a1 1 0 002 0V6a4 4 0 00-4-4z"/>
  </g>
</svg>
