<svg xmlns="http://www.w3.org/2000/svg" data-name="Layer 2" viewBox="0 0 425.95 353.02">
  <path d="M28.77 321.31s-38.71-7.74-26.32-18.06c12.39-10.32 26.84 6.19 26.84 6.19s-19.35-25.03-3.1-32.26c16.26-7.23 18.58 21.16 18.58 21.16s3.1-13.68 8.52-9.03-5.94 22.97-5.94 22.97 9.55-6.45 11.1 0-10.84 10.32-29.68 9.03z" fill="#a14716"/>
  <path d="M37.03 321.39c-.32 0-.58-.25-.6-.57-.63-11.69-4.34-28.25-4.37-28.42a.61.61 0 01.45-.72c.32-.08.64.13.72.45.04.17 3.76 16.83 4.4 28.62.02.33-.24.61-.57.63h-.03zm1.29.26a.603.603 0 01-.52-.9c1.77-3.04 9.06-18.38 9.14-18.54a.6.6 0 01.8-.28c.3.14.43.5.28.8-.3.63-7.39 15.54-9.18 18.62a.6.6 0 01-.52.3z" fill="#feeed6"/>
  <path d="M39.48 321.91c-.2 0-.39-.1-.51-.28-.18-.28-.1-.65.18-.83 2.83-1.8 11.92-6.54 12.3-6.74.29-.15.66-.04.81.25a.6.6 0 01-.26.81c-.09.05-9.43 4.91-12.21 6.68a.62.62 0 01-.32.09zm-3.1-.64a.57.57 0 01-.35-.12c-9.11-6.7-21.65-10.97-21.77-11.01a.613.613 0 01-.38-.76c.1-.31.45-.48.76-.38.13.04 12.84 4.37 22.1 11.18.27.2.32.57.13.84-.12.16-.3.24-.48.24z" fill="#feeed6"/>
  <path d="M365.8 340.79c0 3.63-70.02 6.58-156.39 6.58s-156.39-2.95-156.39-6.58 70.02-6.58 156.39-6.58 156.39 2.95 156.39 6.58zm-91.35-26.71c-7.47-.32-28.39-1.55-10.84-27.87s120.26-83.1 139.87-74.84c19.61 8.26 20.65 29.42-3.1 50.06-23.74 20.65-109.43 53.35-125.94 52.65zM99.99 159.25s-28.9 6.19-39.74-22.19 19.61-69.68 72.77-97.03C186.19 12.67 251.22-8.5 263.61 3.38c12.39 11.87 15.48 30.45-8.77 53.68C230.58 80.29 141.81 157.71 100 159.25zm90.84 135.22c-26.2 8.29-78.45 24.77-109.94-.52-31.48-25.29-51.1-50.06 0-91.35 51.1-41.29 104.77-65.03 163.61-97.55 58.84-32.52 117.68-66.06 146.06-57.29 28.39 8.77 40.26 40.77 33.55 81.03-6.71 40.26-148.63 138.89-233.29 165.68z" fill="#d9d9eb"/>
  <path d="M299.8 73.89s5.23-10.06-2.13-22.26c0 0-4.26 8.32-10.65 6.19-6.39-2.13-3.1-20.13 4.26-24.77 7.35-4.65 22.26-3.29 26.32 1.74 4.06 5.03 6.97 20.52 6.77 30.97-.19 10.45-24.58 8.13-24.58 8.13z" fill="#f56d22"/>
  <path d="M297.67 51.63c7.35 12.19 2.13 22.26 2.13 22.26s4.73.45 10.04.06l10.91-5.77c1.42-21.84-4.87-31.43-4.87-31.43-11.04 2.62-18.21 14.88-18.21 14.88z" fill="#feeed6"/>
  <path d="M320.75 68.19c.28-4.29.26-8.1.05-11.46-5.29 1.73-10.39 4.09-15.59 6.1-1.19.46-2.4.9-3.62 1.31.24 5.87-1.78 9.76-1.78 9.76s4.73.45 10.04.06l10.91-5.77z" fill="#feddad"/>
  <path d="M298.83 49.68c-.1 0-.2-.03-.29-.09a.508.508 0 01-.12-.7c.29-.41 7.18-9.98 17.16-13.09.26-.08.54.07.63.33.08.26-.07.54-.33.63-9.65 3.01-16.58 12.62-16.64 12.71-.1.14-.25.21-.41.21z" fill="#a14716"/>
  <path d="M346.25 73.31s16.45-15.87 30.97-12c14.52 3.87 13.35 18.19 11.61 25.94-1.74 7.74-9.48 18-14.32 17.03-4.84-.97-6.39-14.52-6.39-14.52s-11.42 7.16-14.32 11.61c0 0-1.94-21.29-7.55-28.06z" fill="#f56d22"/>
  <path d="M365.05 66.3c-6.99 2.1-13.07 6.78-16.84 10.22 4.11 8.63 5.58 24.85 5.58 24.85 2.9-4.45 14.32-11.61 14.32-11.61 4.08-18.02-3.07-23.46-3.07-23.46z" fill="#feeed6"/>
  <path d="M358.55 75.56c-.57-1.81-1.21-3.62-1.94-5.39-3.37 2.05-6.26 4.41-8.39 6.36 4.11 8.63 5.58 24.85 5.58 24.85 1.46-2.25 5.1-5.18 8.34-7.54-.34-6.18-1.72-12.39-3.59-18.28z" fill="#feddad"/>
  <path d="M368.7 86.97s-.07 0-.1-.01a.507.507 0 01-.39-.59c.03-.14 2.78-13.95-3.16-20.07-.19-.2-.19-.51.01-.71.2-.19.51-.19.71.01 6.3 6.5 3.54 20.38 3.42 20.96-.05.24-.26.4-.49.4z" fill="#a14716"/>
  <path d="M336.77 204.54s-.39 82.06-13.55 122.32c0 0 7.35-2.71 12 1.94s3.87 8.9.39 10.45-23.61 3.48-29.03-.77c-5.42-4.26 2.32-23.61 4.65-42.19 2.32-18.58 6.97-58.84 5.81-65.42-1.16-6.58 19.74-26.32 19.74-26.32zm-185.03 33.67s2.32 13.94-5.03 33.29-10.84 27.48-9.68 36 16.26 29.03 18.58 30.97c2.32 1.94 23.61 3.48 25.55.39 1.94-3.1 3.48-9.29-4.65-11.23-8.13-1.94-13.16.39-13.16.39s-11.23-17.03-8.9-25.16c2.32-8.13 43.74-28.65 47.61-63.48l-50.32-1.16z" fill="#ab4c17"/>
  <path d="M144.26 296.43c6.38-5.96 19.96-21.98 10.25-30.55-1.48-1.31-3.41-1.74-5.4-1.64-.66 2.32-1.45 4.74-2.4 7.26-5.33 14.03-8.62 22.15-9.59 28.81 2.67-.19 5.13-2 7.15-3.88zm30.86-36.13c3.61-1.16 6.53-8.25 1.53-9.45-2.93-.71-7.63 1.05-8.17 4.4-.54 3.36 3.72 5.99 6.64 5.05z" fill="#feddad"/>
  <path d="M149.8 246.73s32.13-5.81 47.23-5.42c15.1.39 91.74.77 99.1-5.81 7.35-6.58-40.65-21.68-63.87-17.81-11.14 1.86-31.7 5.08-48.9 11.61-18.65 7.08-33.55 17.42-33.55 17.42z" fill="#ab4c17"/>
  <path d="M128.9 187.63s-27.1-16-29.42-47.23 14.45-46.71 17.29-46.19c2.84.52 3.1 1.29.26 7.48s-14.19 37.68 3.1 55.48c17.29 17.81 26.58 18.58 26.58 18.58l-17.81 11.87z" fill="#f56d22"/>
  <path d="M86.57 326.47s18.06-7.74 18.06 11.87c0 0-3.94 3.26-20.13 2.58-16.97-.71-16.52-3.61-17.55-9.29 0 0-1.16-30.32 2.32-44.26 3.48-13.94 19.35-27.87 29.03-49.55s19.35-54.58 48.77-66.19 99.48-8.13 111.87-11.23c12.39-3.1 24.77-10.06 28.65-17.81 3.87-7.74 3.1-14.71-1.94-17.81-5.03-3.1-32.9-5.42-42.97-27.48-10.06-22.06 1.94-30.19 6.58-29.42 4.65.77 28.65 12 47.61 4.26 18.97-7.74 29.81-14.71 46.45-3.87 16.65 10.84 14.32 29.03 8.9 45.68s-18.19 24-17.81 43.35c.39 19.35 4.65 35.23 1.16 71.23s-27.48 100.26-27.48 100.26 5.81-5.03 11.61-1.16c5.81 3.87 3.48 10.45 1.94 11.61s-29.81 2.32-32.13-.39c-2.32-2.71-1.55-3.87 1.16-12.77 2.71-8.9 8.52-29.03 10.45-51.87s-5.03-38.32-10.45-44.13c-5.42-5.81-92.13-1.94-102.97.77-10.84 2.71-88.65 44.9-93.68 49.94-5.03 5.03-11.1 30.19-7.48 45.68z" fill="#f56d22"/>
  <path d="M263.62 159.06c-1.54.51-3.1.96-4.66 1.35-12.39 3.1-82.45-.39-111.87 11.23-17.04 6.73-27.46 20.6-35.09 35.3.08.49.16.98.25 1.48 3.87 20.9 35.23 3.48 56.9-4.26 21.68-7.74 63.1-5.42 82.06-18.19 13.21-8.9 13.46-20.6 12.4-26.9zm22.44 53.09s-16 5.16-19.87-4.65c-3.87-9.81 8.77-20.13 19.1-17.29s12.65 14.97.77 21.94zM329.8 62.91c-10.19-1.29-19.52 3.78-32.91 9.24-18.97 7.74-42.97-3.48-47.61-4.26-4.65-.77-16.65 7.35-6.58 29.42 6.4 14.02 19.98 20.07 30.32 23.41 25.2.38 29.67-23.75 28.71-28.51-1.01-5.04-4.53-8.06-4.53-8.06-1.42-12.76 19.86-18.79 32.6-21.24z" fill="#feeed6"/>
  <path d="M244.46 81.25s-8.64-2.82-7.23-10.14c1.41-7.31 6.07-8.81 10.97-5.15s8.56 8.14 7.48 11.05-4.49 8.06-11.22 4.24z" fill="#421e09"/>
  <path d="M316.36 81.13c.02 2.37.16 4.8.78 6.93.32 1.05.78 2.03 1.42 2.64.63.61 1.41.87 2.37.86.49-.03.97-.1 1.5-.25s1.09-.25 1.58-.48c1.03-.36 1.97-.88 2.78-1.54 1.65-1.28 2.72-3.36 3.02-5.6v-.07c.05-.27.3-.47.57-.43.22.03.38.2.42.4.5 2.62-.42 5.48-2.42 7.44-1 .95-2.17 1.75-3.43 2.21-.62.29-1.26.43-1.9.62-.63.19-1.37.27-2.09.3-.75-.01-1.52-.11-2.27-.4-.75-.3-1.42-.79-1.94-1.36-1.06-1.16-1.51-2.54-1.77-3.84-.47-2.63-.24-5.15.38-7.59.07-.27.34-.43.61-.37.23.06.38.26.38.48v.03zm-72.87 10.75c2.26 1.18 4.72 2.06 7.2 2.62 2.48.55 5.04.85 7.6.63.64-.03 1.27-.16 1.9-.24l.95-.14.94-.22c.62-.15 1.26-.27 1.88-.45l1.83-.63c.3-.11.62-.2.92-.32l.88-.41 1.78-.8c1.16-.59 2.27-1.28 3.44-1.9l.05-.03a.49.49 0 01.67.21c.12.23.05.5-.16.64-1.1.77-2.2 1.56-3.36 2.27l-1.79.97-.9.47c-.31.14-.63.26-.95.39-2.49 1.13-5.2 1.76-7.93 2.06-2.74.25-5.55.07-8.22-.62-2.68-.7-5.21-1.87-7.34-3.71a.494.494 0 01-.05-.7c.15-.18.41-.22.61-.12l.05.02z" fill="#703210"/>
  <path d="M278.19 154.34c-.96-1.43-1.68-2.06-.9-6.84.77-4.77 8.77-10.58 11.23-10.32 2.45.26 3.55 5.42 20.58 10.45 15.17 4.48 24.32.26 26.39 1.81s5.03 10.32 1.16 14.84-18.32 7.48-37.03 2.58-19.87-10.19-21.42-12.52z" fill="#6b2f0f"/>
  <path d="M315.22 177.55a.51.51 0 01-.5-.47c-.5-9.05-2.89-13.68-2.91-13.73a.51.51 0 01.21-.68.49.49 0 01.67.21c.1.19 2.51 4.85 3.02 14.14.02.28-.2.51-.47.53h-.03z" fill="#feeed6"/>
  <ellipse cx="315.61" cy="184.09" rx="8.39" ry="9.1" fill="#ff9e1b"/>
  <path d="M369.54 145.84c2.41-.68 6.18-2.33 7.21-6.19.11-.42.67-.47.84-.08.88 2.1 2.96 5.47 7.39 6.32.42.08.49.66.1.84-2.32 1.06-5.49 3.59-7.38 7.71-.24.53-1 .44-1.1-.13-.45-2.58-2-6.21-7.04-7.61-.44-.12-.45-.73-.02-.86zM234.77 36.74c.59 1.7 1.95 4.32 4.76 4.89.3.06.37.46.09.6-1.46.73-3.78 2.36-4.19 5.57-.04.31-.45.38-.6.11-.86-1.61-2.82-3.77-5.85-4.94-.39-.15-.36-.7.04-.8 1.83-.44 4.36-1.71 5.14-5.38.07-.32.51-.36.61-.05zm116.38-.5c-1.75-.49-4.48-1.69-5.23-4.49-.08-.3-.49-.34-.61-.05-.64 1.52-2.14 3.96-5.35 4.58-.31.06-.35.48-.07.61 1.68.77 3.98 2.6 5.35 5.59.17.38.73.32.8-.09.33-1.87 1.45-4.5 5.1-5.52.32-.09.33-.53.01-.62zm-123.04 88.72c-.49 2.98-1.98 7.71-6.47 9.47-.48.19-.48.87.02 1.01 2.63.78 6.94 2.83 8.55 8.02.15.49.86.5 1.02 0 .96-2.92 3.58-7.05 8.27-9.86.6-.36.4-1.26-.3-1.3-3.15-.2-7.71-1.58-10.06-7.44-.2-.51-.94-.45-1.03.09z" fill="#ff9e1b"/>
  <path d="M223.35 327.76s-19.87-4.9-17.81-11.61c2.06-6.71 15.74-1.03 15.74-1.03s-13.68-28.9 2.84-32.26c16.52-3.35 13.16 31.23 13.16 31.23s11.87-17.55 17.29-11.87c5.42 5.68-5.16 17.29-5.16 17.29s17.81-9.03 18.06-1.03c.26 8-23.23 12.65-44.13 9.29z" fill="#a14716"/>
  <path d="M234.57 329.01c-.21 0-.42-.12-.53-.32-4.26-8-7.29-28.24-7.42-29.1-.05-.33.18-.63.51-.68.32-.05.63.18.68.51.03.21 3.13 20.89 7.29 28.71a.597.597 0 01-.53.88zm1.29-.26c-.08 0-.17-.02-.25-.05-.3-.14-.43-.49-.3-.79 2.7-5.92 10.07-16.06 10.38-16.49.2-.27.57-.32.84-.13.27.2.33.57.13.84-.08.1-7.61 10.47-10.26 16.28-.1.22-.32.35-.55.35zm1.81.26a.6.6 0 01-.31-1.11c4.92-2.98 19.78-7.12 20.41-7.29a.602.602 0 11.32 1.16c-.15.04-15.33 4.27-20.11 7.16-.1.06-.2.09-.31.09zm-5.29-.65c-.16 0-.32-.06-.44-.19-4.61-4.98-16.53-8.83-16.65-8.87a.595.595 0 01-.39-.75c.1-.32.44-.49.75-.39.5.16 12.33 3.98 17.16 9.2.22.24.21.62-.03.85a.59.59 0 01-.41.16z" fill="#feeed6"/>
  <path d="M355.22 325.96s-23.23-21.42-14.19-30.97c9.03-9.55 16.52 17.55 16.52 17.55s17.55-51.35 32.52-48.26c14.97 3.1-20.39 49.81-20.39 49.81s26.58-28.65 36.9-22.71c10.32 5.94-25.81 24.77-25.81 24.77s38.97-21.94 37.68-9.55-36.65 19.35-36.65 19.35h-26.58z" fill="#a14716"/>
  <path d="M364.06 326.88c-.32 0-.59-.25-.6-.58-.77-19.91 12.55-39.08 12.69-39.27.19-.27.56-.34.84-.14.27.19.34.56.14.84-.13.19-13.23 19.04-12.47 38.53.01.33-.25.61-.58.62h-.02zm2.26.19c-.1 0-.2-.02-.29-.07a.605.605 0 01-.24-.82c7.99-14.57 28.04-25.55 28.24-25.66.29-.16.66-.05.81.24.16.29.05.66-.24.81-.2.11-19.94 10.92-27.76 25.18-.11.2-.32.31-.53.31zm2.84.13c-.2 0-.4-.1-.51-.29a.614.614 0 01.2-.83c5.67-3.48 32.41-12.33 33.54-12.7.31-.11.65.07.76.38.1.32-.07.65-.38.76-.28.09-27.74 9.18-33.29 12.59-.1.06-.21.09-.31.09zm-7.62-.39c-.16 0-.33-.07-.44-.2-6.29-6.93-13.93-19.58-14-19.71a.597.597 0 011.02-.62c.08.13 7.66 12.68 13.87 19.52.22.25.2.62-.04.85-.12.1-.26.16-.4.16z" fill="#feeed6"/>
  <path d="M55.35 322.44H2.7c-.55 0-1-.45-1-1s.45-1 1-1h52.65c.55 0 1 .45 1 1s-.45 1-1 1zm222.19 6.97h-78.58c-.55 0-1-.45-1-1s.45-1 1-1h78.58c.55 0 1 .45 1 1s-.45 1-1 1zm123.87-1.55H341.8c-.55 0-1-.45-1-1s.45-1 1-1h59.61c.55 0 1 .45 1 1s-.45 1-1 1zm14.71 7.74h-22.45c-.55 0-1-.45-1-1s.45-1 1-1h22.45c.55 0 1 .45 1 1s-.45 1-1 1zm-57.67 17.42h-36.77c-.55 0-1-.45-1-1s.45-1 1-1h36.77c.55 0 1 .45 1 1s-.45 1-1 1zm-317.81-5.03H18.58c-.55 0-1-.45-1-1s.45-1 1-1h22.06c.55 0 1 .45 1 1s-.45 1-1 1z" fill="#d9d9eb"/>
</svg>
