<svg data-name="Layer 2" xmlns="http://www.w3.org/2000/svg" viewBox="0 0 3348.03 1217.55">
  <g stroke-width="0" data-name="Layer 1">
    <path d="M1469.96 483.35c-3.21-54.62-165.48 147.8-165.48 147.8v321.01c-51 13.15-85.95 54.16-85.95 78.22 0 30.52 24.1 56.23 69.08 56.23 0 0 78.97-1.1 106.84-8.84 28.92-8.03 31.23-28.66 36.15-50.61 20.89-93.18 42.06-498.02 39.36-543.82zm53.02 560.68c-44.98 0-69.08-25.7-69.08-56.23s56.23-88.36 130.13-81.93c73.9 6.43 258.65 35.34 258.65 57.84s-6.43 49.8-35.34 49.8-284.36 30.52-284.36 30.52z" fill="#ffb27d"/>
    <path d="M1535.83 33.51c133.34 1.61 119.69-21.69 285.97 109.25 101.87 80.22 238.08 455.76 249.02 504.46 81.93 364.69-338.59 488.35-441.8 393.6-220.5-202.43 81.93-724.55 16.07-785.6-65.87-61.05-109.25-221.7-109.25-221.7z" fill="#ffd19f"/>
    <path d="M1656.37 495.4c-3.21-54.62-182.34-21.69-182.34-21.69l14.75 505.08c-47.64 14.72-79.82 53.4-79.82 76.49 0 30.52 31.8 52.77 93.78 57.03 96.39 6.63 116.67-35.34 116.67-57.84 0-7.91 39.68-512.73 36.95-559.08z" fill="#ffd19f"/>
    <path d="M2066.78 925.11c39.99-12.07 121.55-26.25 189.35-18.99 95.38 10.22 162.77 133.36 50.04 236.62-32.98 30.21-78.98 42.72-78.98 42.72s3.59-25.63-16.57-6.95c-71.17 65.9-192.17 28.43-192.17 28.43s231.69-97.63 195.88-184.99c-24.86-60.64-140.06-38.69-140.06-38.69l-7.49-58.15zm-856.28-795.2c-38.56 9.64-108.44 115.67-115.67 245.8-7.23 130.13 14.46 190.38 33.74 190.38s67.48-89.16 77.11-156.64c9.64-67.48 4.82-279.54 4.82-279.54z" fill="#ffb27d"/>
    <path d="M1314.59 711.83c115.67 24.5 183.95-57.84 248.21-169.49 45.77-79.53 154.23-412.08 149.41-462.69C1707.4 29.05 1567.63-2.28 1464 .13c-103.62 2.41-260.26 31.33-286.77 134.95-26.51 103.62-11.84 545.15 137.36 576.75z" fill="#ffd19f"/>
    <path d="M1670.78 1119.54c-44.98 0-69.08-25.7-69.08-56.23s56.23-88.36 130.13-81.93c73.9 6.43 258.65 35.34 258.65 57.84s-6.43 49.8-35.34 49.8-284.36 30.52-284.36 30.52z" fill="#ffb27d"/>
    <path d="M1331.53 445.47c23.28-4.82 43.83 15.01 67.16 12.57 29.68-3.11 67.22-22.04 70.77-16.46 5.02 6.66-47.82 31.98-68.89 34.41-21.71 2.51-38.98-8.16-56.44-18.21-3.72-3.09-22.43-10.27-12.6-12.31zm-66.81 5.55c-4.1 4.61-19.72 23.37-37.97 24.86-18.74 1.53-45.15-12.95-53.08-22.01-2.82-3.22-1.19-6.57 1.84-5.73 14.71 4.08 37.65 13.53 50.02 12.88 9.14-.48 29.07-13.27 31.03-14.71 6.48-4.76 11.66.77 8.16 4.7zm16.07 170.09c99-9.54 124.11 10.84 131.34 28.92s-62.45 66.07-106.13 64.86c-21.71-.6-87.65-47.29-76.51-77.11 6.83-18.27 30.78-14.69 51.31-16.67z" fill="#b75e6d"/>
    <path d="M1463.53 122.68c58.12-15.85 156.64 2.41 192.79 2.41s79.52 115.67 79.52 173.51-60.25 243.39-103.62 277.13c-43.38 33.74-79.52 55.43-89.16 9.64s-101.21-192.79-113.26-272.31c-12.05-79.52 7.23-183.15 33.74-190.38zm485.18 948.67c-34.17-34.17-284.36-128.52-297.21-289.18-12.85-160.65 1.61-215.28 77.11-210.46 75.51 4.82 290.79 102.82 345.41 183.15s72.29 274.72 53.02 292.39c-19.28 17.67-171.9 30.52-178.33 24.1z" fill="#ffb27d"/>
    <path d="M1158.46 896.11c-170.78 72.13-336.84-90.93-298.03-293.5 23.56-122.94 223.56-98 135.88 100.59-55.08 124.75-211.44 197.93-341.71 194.86-56.74-1.33-138.62-24.28-202.12-81.87-32.01-29.02-52.46-67.58-36-106.76 28.21-67.18 108.21-23.18 127.23 67.38.68 3.19 2.43 11.34 3.09 14.46 29.32 156.21-94.67 201.75-214.86 140.31l-34.28-18.77c-83.52-44.05-201.65-83.04-294.19-71.02-.94.81-6.71-.66-.93-1.82 99.7-13.13 211.43 26.56 296.83 69.58l34.36 18.57c123.96 61.75 236.36 9.48 207.49-135.81-.67-3.05-2.45-11.13-3.12-14.18-21.88-88.35-91.05-125.05-115.38-65.98-15.87 38.55 7 73.39 34.58 98.38 67.86 61.49 144.1 77.37 197.52 78.92 134.58 3.91 282.11-78.57 332.19-191.69 80.51-181.87-95.96-193.63-114.09-92.53-33.83 188.66 118.88 347.12 277.78 277.22 13.5-3.67 17.7 9.31 7.76 13.65z" fill="#cad7ff"/>
    <path d="M2096.19 484.38c254.5 367.06 751.01 153.37 630.97 35.88-125.71-139.66-520.01 141.17-421.75 303.49 2.13 3.94 4.6 7.65 6.97 11.43 79.27 118.89 247.91 63.89 360.77 51.35 33-4.01 66.17-7.06 98.95-1.06 32.38 6.16 88.67 29.47 66.42 70.05-38.58 56.14-144.9 55.62-197.01 42.45-180.67-40.71-161.28-192.45-47.82-229.66 134-43 298.65 52.18 399.68 119.33 111.62 74.19 241.08 209.7 320.96 125.9 18-18.88 27.96-46.44 30.94-58.35.71-2.82 3.55-3.11 2.53.12-55.82 177.06-204.88 45.18-316.31-35.55-68.95-49.95-129.76-88.13-202.05-118.59-306.39-128.42-395.31 104.19-242.22 170.75 162.26 75.12 334.32-32.66 198.76-73.89-56.37-15.99-115.31-1.3-171.94 6.55-109.03 17.77-241.87 39.13-309.96-63.87-2.51-3.97-5.12-7.89-7.36-12.01-113.22-190.61 369.28-503.94 460.5-282.76 14.55 59.05-58.89 103.33-98.72 121.19-101.31 44.57-218.75 47.35-322.52 15.45-55.7-17.19-107.82-45.25-153.12-81.93-37.39-30.1-82.05-80.04-99.37-109.23-4.12-6.94 8.57-13.07 12.68-7.06z" fill="#abbaf4"/>
    <g fill="#abbaf4">
      <ellipse cx="765.16" cy="1076.06" rx="50.61" ry="20.48"/>
      <ellipse cx="802.39" cy="1040.67" rx="29.4" ry="11.9"/>
      <ellipse cx="847.88" cy="1061.46" rx="29.4" ry="11.9"/>
      <ellipse cx="847.1" cy="1092.63" rx="29.4" ry="11.9"/>
    </g>
    <g fill="#abbaf4">
      <ellipse cx="1030.24" cy="1111.01" rx="50.61" ry="20.48"/>
      <ellipse cx="1067.47" cy="1075.61" rx="29.4" ry="11.9"/>
      <ellipse cx="1112.96" cy="1096.4" rx="29.4" ry="11.9"/>
      <ellipse cx="1112.18" cy="1127.57" rx="29.4" ry="11.9"/>
    </g>
  </g>
</svg>
