<svg xmlns="http://www.w3.org/2000/svg" data-name="Layer 2" viewBox="0 0 1481.1 1325">
  <g data-name="Layer 2">
    <path d="M1476.15 655.77c43.34 287.61-204.55 599.08-474.46 660.99-64.79 14.86-126.66 7.76-250.41-6.45-310.36-35.63-539.81-61.98-665.56-237.37C2.33 956.64-25.86 788.19 26.41 655.77 65.06 557.84 123.67 540.55 290 400.79 608.28 133.35 609.69 15.19 751.28 1.22c134.6-13.27 243.42 82.65 408.56 228.23 171.8 151.45 290.68 256.24 316.31 426.31z" fill="#d0efef"/>
    <path d="M530 452.58c-4.29 12.78 11.82 23.57 22.65 31.61-7.7 3.47-14.84 8.71-19.17 15.96-4.33 7.25-5.45 16.71-1.58 24.21 3.96 7.67 12.34 12.16 20.76 14.12 21.44 4.99 45.51-4.9 57.25-23.52 7.6 8.02 19.14 12.12 30.09 10.68s21.05-8.37 26.32-18.08c3.37-6.21 4.79-13.72 2.65-20.45-2.14-6.73-8.28-12.34-15.33-12.71 10.12-5.74 17.43-16.51 18.17-28.12.74-11.61-5.52-23.59-15.88-28.89-10.35-5.3-24.26-3.06-31.85 5.75-23.38-32.37-41.14 12.13-41.14 12.13-2.66 1.01-38.38-26.08-52.94 17.31zM315.16 196.93c-13.95 13.21-22.94 32.3-21.45 51.45 1.49 19.15 14.64 37.59 33.12 42.82-22.58 17.41-24.12 55.13-5.08 76.35 61.2 68.17 138.35 29.13 144.12-4.82 49.16 45.95 128.44-.17 149.98-19.07 21.54-18.9 30.77-52.78 16.55-77.66 26.19 6.8 55.87-14.6 57.71-41.6 1.83-27-24.68-52.21-51.55-49.02 12.42-23.58-8.16-54.13-34.06-60.37-25.9-6.24-52.85 5.05-75.2 19.56-22.05-15.95-51.61-20.98-77.69-13.22-13.34 3.97-25.62 11.25-35.72 20.79-8.72 8.23-23.48 30.73-23.48 30.73s-25.86 1.8-37.65 4.07c-14.7 2.83-28.7 9.68-39.59 19.99z" fill="#fff9e9"/>
    <ellipse cx="776.93" cy="1147.4" rx="285.04" ry="41.23" fill="#78a0a0"/>
    <path d="M620.31 1124.16c-7.01 5.28-14.27 11.48-16.18 20.05-1.38 6.2 1.06 13.69 6.93 16.1.07 4.54 3.79 8.39 8.04 10 10.15 3.84 21.03-2.66 29.93-8.87 12.22-8.53 24.45-17.06 36.67-25.58 5.81-4.06 12.28-9.35 11.96-16.43-.16-3.58-2.12-6.83-4.44-9.56-7.4-8.7-23.11-16.08-34.5-11.37-13.37 5.53-26.89 17-38.41 25.67z" fill="#fff9e9"/>
    <path d="M611.06 1160.31s-.96-3.64 2.24-8.75c3.2-5.11 9.32-8.83 9.32-8.83s-7.26 1.61-10.74 4.3c-3.49 2.69-5.16 9.9-5.16 9.9s.33 1.59 1.68 2.55c1.35.96 2.66.82 2.66.82z" fill="#ddd8ce"/>
    <path d="M889.5 827.24s-.71-5.82-2.97-11.75c-3.25-8.55-16.07-8.55-16.07-8.55l-5.58 41.22 9.34 9.72 11.45-9.57 3.83-21.07zm-224.34-21.65s.17-5.32 7.52-10.79c7.35-5.47 13.85-4.27 13.85-4.27l-3.25 45.64h-12.49l-5.62-30.58z" fill="#aa3c37"/>
    <path d="M971.15 1054.11c17.61-9.26 33.3-21.76 48.24-34.9 6.94-6.1 13.88-12.54 18.07-20.77 2.89-5.69 6.7-13.44 12.91-11.97 2.98 3.22 1.11 8.39-1 12.24-24.14 43.96-62.84 79.76-108.54 100.41-9.43 4.26-19.43 7.95-29.77 7.81-2.11-.03-4.28-.23-6.16-1.18-3.61-1.82-5.41-5.98-6.04-9.97-2.36-15.03 7.04-27.16 21.26-27.23 17.68-.08 35.55-6.3 51.03-14.44z" fill="#ddd8ce"/>
    <path d="M939.57 933.4c5.45-.91 11.24-1.12 16.31 1.08 10.79 4.67 14.51 18.14 14.76 29.9.47 22.62-6.85 44.63-14.9 65.78a883.63 883.63 0 01-28.31 66.15c-3.51 7.35-7.83 15.32-15.51 18.03-7.99 2.82-17.16-1.38-22.44-8-5.29-6.62-7.45-15.17-8.97-23.5-9.23-50.82-5.02-138.7 59.06-149.42zm-336.13 15.76c-5.5.47-11.16 1.7-15.53 5.08-9.3 7.2-9.57 21.17-6.89 32.62 5.15 22.03 17.7 41.54 30.74 60.04a879.918 879.918 0 0043.82 57.07c5.22 6.26 11.38 12.9 19.49 13.62 8.44.75 16.28-5.59 19.76-13.31 3.48-7.73 3.46-16.54 2.86-24.99-3.66-51.52-29.51-135.62-94.25-130.13z" fill="#fff9e9"/>
    <path d="M633.19 999.01c-2.86 22.48-4.59 45.46 1.09 67.56 5.68 22.09 19.68 43.47 42.1 54.99 12.79 6.58 27.56 9.63 42.25 11.55 27.58 3.6 55.63 3.49 83.47 2.28 32.04-1.4 64.55-4.37 94.12-15.14 7.54-2.75 15.03-6.1 20.53-11.37 7.63-7.29 10.58-17.37 12.39-27.11 6.26-33.7 1.96-68.3-6.11-101.74-12.65-52.42-34.87-103.57-69.97-147.62-12.4-15.56-27.16-30.72-47.16-38.18-12.81-4.78-27.01-6.07-40.93-5.85-27.94.43-68.41 7.93-83.07 31.38-20.03 32.02-27.95 74.15-36.19 109.55a690.775 690.775 0 00-12.53 69.71z" fill="#fff9e9"/>
    <path d="M678.47 790.87c-.84 18.81-1.5 37.83 1.41 56.39 5.59 35.74 25 68.16 51.46 85.93 26.46 17.78 59.46 20.57 87.48 7.4a91.351 91.351 0 0034.42-28.19c26.37-35.49 27.5-88.91 20.74-136.12-2.47-17.25-5.84-34.5-12.2-50.3-19.72-49.03-65.75-76.56-110.69-81.92-13.32-1.59-27.26-1.44-39.34 5.3-38.25 21.33-31.44 100.04-33.28 141.51z" fill="#fff9e9"/>
    <path d="M712.72 846.86c28.18 26.32 67.21 45.79 104.7 36.77 40.52-9.75 68.39-55.69 58.33-96.13-6.76-27.17-27.97-49.29-53.09-61.65-25.12-12.36-53.8-15.87-81.78-15.02-17.86.54-36.47 3.07-51.15 13.24-42.18 29.23-4.68 96.95 22.99 122.79z" fill="#ddd8ce"/>
    <path d="M594.57 580.98c-3.05 1.01-6.25 2.25-8.15 4.84-1.56 2.14-1.99 4.89-2.3 7.52a183.328 183.328 0 00-.68 37.25c.09 1.07.2 2.18.77 3.09 1.1 1.78 3.46 2.19 5.53 2.48 24.67 3.47 48.28 14.11 67.21 30.3 4.73 4.04 10.4 8.75 16.39 7.09 3.31-.91 5.78-3.62 8.02-6.22 8.42-9.75 16.55-19.98 21.82-31.74 5.27-11.76 7.49-25.31 3.75-37.65-2.63-8.69-8.58-16.68-16.54-21.17-7.78-4.39-18.88-3.33-27.66-4.03-22.96-1.84-46.3.94-68.16 8.22zm206.33-82.95c9-6.51 20.05-11.61 30.96-9.5 13.24 2.55 22.56 14.85 35.35 19.12-13.08 29.49-15.74 62.39-17.81 94.58-.59 9.21-1.37 19.03-6.97 26.36-7.17 9.39-20.79 12.02-32.19 8.89-11.39-3.13-20.89-10.98-29.11-19.46-8.27-8.52-15.78-18.12-19.72-29.31-5.9-16.76.21-33.77 6.81-49.41 6.91-16.37 18.29-30.86 32.69-41.28z" fill="#bf946d"/>
    <path d="M898.73 690.73c-7.82-21.52-19.39-41.38-31.61-60.56a866.47 866.47 0 00-38.1-55.03c-6.85-9.12-13.96-18.19-22.75-25.14-18.19-14.39-42.73-19.58-63.88-13.08-28.4 8.72-89.14 17.04-90.45 126.16-.64 52.76 5.12 110.17 40.64 148.3 30.68 32.95 77.05 46.36 118.9 38.98 22.82-4.03 44.72-13.91 62.04-29.85 17.32-15.93 29.84-38.06 33.57-62.46 3.42-22.36-.53-45.79-8.36-67.31z" fill="#fff9e9"/>
    <path d="M740.33 582.57c-5.92-3.82-12.88-5.79-19.87-6.61-14.59-1.7-29.42 1.52-42.67 7.62-3.51 1.62-8.63 4.24-12.08 5.66-8.97 17.43-14.47 40.63-14.88 74.18-.41 34.04 2.95 69.68 14.14 101.17 6.01-2.91 11.67-7.03 16.9-11.16 20.93-16.52 41.4-36.16 48.58-61.84 1.75-6.25 2.66-12.72 4.75-18.86 4.53-13.29 14.3-24.24 19.31-37.36 7.03-18.42 2.39-42.1-14.17-52.79z" fill="#bf946d"/>
    <path d="M854.16 551.95c4.97 4.02 9.9 8.43 15.93 10.58 5.74 2.05 12.37-1.61 14.56-5.07 8.24-13 9.79-28.76 3.9-42.98-3.01-7.27-8.8-13.07-15.18-17.68a77.184 77.184 0 00-29.75-13.07c-9.81-2-20.33-1.99-29.49 2.04-5.92 2.6-19.83 12.53-21.62 19.08-.2.72 12.24-8.34 28.12 4.63 18.53 15.13 18.92 30.65 33.52 42.46zm-252.75 23.08c-13.33 5.25-41.93 17.34-36.52 59.25 1.51 11.71 4.99 23.13 10.47 33.59 4.22 8.04 9.49 15.84 17.09 20.81 7.59 4.97 17.93 6.56 25.78 2 12.86-12.23-20.56-35-12.35-69.17 3.81-15.84 14.21-37.89 26.57-48.51 0 0-13.34-4.94-31.04 2.02z" fill="#edb68a"/>
    <path d="M795.03 818.59c-2.16 3.46-4.93 6.62-8.44 8.7-5.05 2.99-11.13 3.5-16.98 3.94 6.7.96 13.67.91 20.06-1.31 6.39-2.22 11.74-7.02 14.71-13.09 3.69-7.53 4.87-17.86 3.72-27.58-.34-2.82-2.91-4.68-4.32-7.14-.73-1.27-1.85-2.45-3.3-2.69-4.98-.81-1.98 5.26-1.37 7.24 1.09 3.58 1.65 7.32 1.68 11.06.06 7.31-1.88 14.66-5.76 20.87z" fill="#ddd8ce"/>
    <path d="M826.79 810.14c3.68 1.76 7.71 2.94 11.79 2.81 5.86-.19 11.27-3.02 16.45-5.79-5.14 4.4-11.05 8.11-17.63 9.66-6.59 1.55-13.67.38-19.44-3.15-7.15-4.38-13.7-12.46-17.93-21.28-1.23-2.56-.06-5.51-.19-8.35-.07-1.46.24-3.06 1.34-4.04 3.76-3.36 4.49 3.37 5.04 5.37 1 3.61 2.54 7.06 4.52 10.24 3.87 6.2 9.46 11.36 16.06 14.52z" fill="#ddd8ce"/>
    <path d="M736.72 748.86c-10.32 8.22-13.21 17.49-5.88 25.14 5.81 6.07 23.19 3.67 31.42 5.39 9.48 1.98 17.53 8.11 26.67 11.31 9.13 3.2 21.33 2.23 25.84-6.34 1.29-2.46 1.78-5.25 2.8-7.84 3.54-8.94 12.75-13.98 20.42-19.78s14.86-15.14 11.75-24.24c-3.27-9.56-15.53-12.22-25.62-11.77-24.66 1.11-76.29 19.29-87.39 28.13z" fill="#231f20"/>
    <path d="M740.78 768.06c2.27.5 4.66-.42 6.5-1.83 1.84-1.42 3.26-3.3 4.76-5.08a62.426 62.426 0 0124.78-17.79c1.67-.66 3.41-1.27 4.77-2.44 1.36-1.18 2.25-3.1 1.65-4.79-1.12-3.2-30.73 11.11-33.36 12.74-3.62 2.24-23.04 16.13-9.1 19.19z" opacity=".29" fill="#fff9e9"/>
    <path d="M672.36 997.55c4.33 14.55 7.76 29.34 11.19 44.13 5.43 23.43 9.01 60.11 14.44 83.53 1.43 6.17 4.86-.64 9.02 4.14 4.16 4.78 11.8 7.17 16.98 3.52 4.92-3.47 5.55-10.42 5.5-16.44-.47-59.67-21.44-117.62-50.07-169.98-1.66-3.04-7.09-13.85-11.73-13.39-4.69.46-4.98 14.82-5.02 18.62-.18 15.72 5.25 31 9.68 45.87zm100.49 138.64s-13.72.11-19.12-.19c-5.28-.29-1.84-3.07-2.67-8.51a2415.833 2415.833 0 01-18.18-151.51c-.57-6.45-3.74-27.04 6.09-16.85 6.63 6.87 10.92 21.07 14.5 29.92 8.43 20.85 14.1 42.88 16.83 65.27 2.99 24.49 5.28 58.34 2.55 81.87z" fill="#ddd8ce"/>
    <path d="M670.31 911.26c-5.15 8.27-5.69 18.6-4.79 28.3 1.62 17.44 7.35 34.19 12.77 50.85a1576.43 1576.43 0 0137.5 135.64c.78 3.39 1.62 6.93 3.93 9.53 2.14 2.4 5.25 3.66 8.31 4.63a72.957 72.957 0 0015.68 3.17c.97.09 2 .15 2.88-.27 1.65-.79 13.84-6.23 13.86-8.06.33-33.74-1.03-62.12-.28-95.23s-3.09-66.71-15.43-97.43c-4.27-10.63-9.86-21.25-19.11-28.01-8.16-5.97-19.61-9.06-28.99-12.62-9.87-3.74-20.67.42-26.32 9.49z" fill="#fff9e9"/>
    <path d="M701.71 1122.75c-4.49 2.75-8.95 6.04-11.24 10.79-2.59 5.36-1.84 12.16 1.86 16.82s10.15 6.95 15.96 5.65c-1.15 5.27 3.62 10.23 8.77 11.82 7.55 2.33 16.43-.67 21.03-7.09 2.69 3.77 8.31 4.67 12.52 2.74 4.21-1.93 7.06-6.11 8.42-10.54 1.35-4.43 1.4-9.14 1.34-13.77-.1-7.78-.99-16.62-7.18-21.33-3.03-2.31-6.89-3.21-10.67-3.67-13.87-1.67-28.97 1.33-40.8 8.59z" fill="#fff9e9"/>
    <path d="M708.28 1156.01s-.56-2.1 1.06-6.8c1.62-4.71 7.76-11.62 7.76-11.62s-7.37 2.29-10.42 7.32c-3.66 6.04-4.48 11.21-4.48 11.21s.54.67 2.79.8 3.29-.91 3.29-.91zm29.68 4.86s-1.01-1.92-.46-6.87 5.03-13.04 5.03-13.04-4.95 2.64-7.6 9.61c-2.51 6.6-2.49 15.27-2.49 15.27s1.3-.62 2.95-2.14c2.11-1.94 2.56-2.83 2.56-2.83zm154.46-168.72c-3.58 14.75-6.09 29.73-8.93 44.64-7.7 40.37-7.7 60.22-7.7 85.92 0 6.34-7.35-2.15-11.27 2.84s-11.42 7.76-16.78 4.38c-5.09-3.21-6.07-10.12-6.33-16.14-2.58-59.62 15.42-118.56 41.34-172.31 1.5-3.12 6.37-14.19 11.03-13.97 4.71.22 5.72 14.55 5.96 18.34.98 15.69-3.66 31.23-7.33 46.3zm-93.3 143.59s13.71-.59 19.09-1.16c5.26-.56 1.68-3.16 2.23-8.63 5.08-50.62 8.56-101.4 10.43-152.24.24-6.47 2.36-27.19-6.94-16.51-6.27 7.2-9.83 21.6-12.96 30.62-7.36 21.25-11.9 43.54-13.48 66.04-1.73 24.61-2.3 58.54 1.63 81.89z" fill="#ddd8ce"/>
    <path d="M890.07 905.88c5.57 8 6.63 18.28 6.23 28.02-.73 17.5-5.6 34.53-10.16 51.44a1580.112 1580.112 0 00-30.54 137.38c-.6 3.42-1.26 7.01-3.44 9.72-2.01 2.5-5.06 3.92-8.06 5.05-5 1.88-10.21 3.22-15.49 3.97-.97.14-1.99.25-2.89-.13-1.69-.7-14.14-5.52-14.25-7.34-2.05-33.68-2.13-62.1-4.58-95.12-2.44-33.02-.32-66.78 10.45-98.09 3.72-10.83 8.77-21.72 17.66-28.94 7.85-6.37 19.12-10.05 28.31-14.08 9.67-4.24 20.66-.64 26.77 8.14z" fill="#fff9e9"/>
    <path d="M869.5 1118.69c4.62 2.52 9.25 5.58 11.78 10.2 2.86 5.22 2.46 12.05-1 16.9-3.45 4.84-9.78 7.46-15.65 6.46 1.41 5.2-3.09 10.4-8.16 12.25-7.42 2.71-16.45.17-21.37-6.01-2.49 3.91-8.06 5.08-12.37 3.37-4.31-1.71-7.36-5.74-8.94-10.09-1.58-4.36-1.87-9.06-2.04-13.69-.3-7.77.14-16.65 6.08-21.67 2.91-2.46 6.72-3.56 10.47-4.21 13.77-2.37 29-.15 41.18 6.5z" fill="#fff9e9"/>
    <path d="M835.23 1158.61s.91-1.97.11-6.88-5.69-12.76-5.69-12.76 5.08 2.39 8.08 9.21c2.84 6.46 3.27 15.13 3.27 15.13s-1.33-.55-3.06-1.99c-2.21-1.83-2.7-2.7-2.7-2.7zm29.4-6.37s.47-4.15-1.37-8.75-7.31-9.5-7.31-9.5 8.44 3.64 10.78 6.65c3.77 4.86 4.77 11.19 4.77 11.19s-.26.41-3.08.55c-2.83.14-3.79-.15-3.79-.15z" fill="#ddd8ce"/>
    <path d="M637.51 1001.51c-9.95-5.94-24.9-2.48-32.05-11.6-8.7-11.1-1.09-25.81-11.71-37.11-.3-.32-.61-.62-.91-.93-1.76.71-3.42 1.62-4.93 2.79-9.3 7.2-9.57 21.17-6.89 32.62 5.15 22.03 17.7 41.54 30.74 60.04a925.65 925.65 0 0013.34 18.4c2.96-3.48 5.69-7.19 8.36-10.89 5.9-8.18 11.82-16.77 13.78-26.66 1.96-9.89-1.07-21.49-9.73-26.65z" fill="#bf946d"/>
    <path d="M953.07 1122.58c6.91 5.42 14.04 11.76 15.78 20.36 1.26 6.23-1.33 13.66-7.25 15.96-.16 4.54-3.96 8.31-8.24 9.84-10.22 3.64-20.97-3.07-29.75-9.46-12.05-8.77-24.11-17.53-36.16-26.3-5.73-4.17-12.09-9.59-11.63-16.67.23-3.57 2.26-6.79 4.63-9.47 7.57-8.56 23.42-15.63 34.72-10.69 13.26 5.79 26.55 17.52 37.9 26.42z" fill="#fff9e9"/>
    <path d="M961.6 1158.9s1.03-3.62-2.07-8.79c-3.1-5.17-9.14-9.01-9.14-9.01s7.22 1.75 10.66 4.51c3.43 2.76 4.97 10 4.97 10s-.36 1.58-1.73 2.52c-1.37.93-2.68.77-2.68.77z" fill="#ddd8ce"/>
    <path d="M681.17 681.69s-.7-19.17 16.38-25.38c18.01-6.55 27.43 5.73 27.43 5.73s-16.18-23.3-33.57-18.81c-24.46 6.3-10.24 38.46-10.24 38.46zm159.48-54.05s-14.79-12.22-30.11-2.44c-16.16 10.31-12.13 25.26-12.13 25.26s-8.65-27.01 5.49-38.09c19.88-15.58 36.76 15.27 36.76 15.27z" fill="#231f20"/>
    <path d="M800.33 891.04s-1.89 0-2 2.35c-.11 2.28 1.19 29.96 1.32 31.68.28 3.78 2.65 3.28 2.65 3.28l4.83-2.14 2.9-13.45-2.17-20.21-4.77-1.68-2.75.16z" fill="#ce9736"/>
    <path d="M665.16 805.59s10.69 86.55 116.18 88.03c96.48 1.35 108.16-66.38 108.16-66.38v34.1s-11.68 62.68-100.43 66.16c-104.97 4.12-126.39-85.18-126.39-85.18l2.48-36.74z" fill="#f45c4d"/>
    <path d="M847.4 956.61c3.12-1.54 5.79-4.25 6.69-7.62.9-3.36-.24-7.34-3.13-9.28-2.34-1.57-5.43-1.65-8.12-.81-2.47.77-5.71 2.51-8.81 4.76h-50.76c-3.59-2.87-7.58-5.14-10.5-6.04-2.69-.83-5.78-.75-8.12.81-2.89 1.94-4.03 5.91-3.13 9.28.9 3.36 3.56 6.08 6.69 7.62-5.03 1.43-7.74 7.16-7.76 12.39-.02 4.13 1.63 8.69 5.39 10.4 4.52 2.05 9.69-.83 13.51-3.99.74-.61 1.46-1.24 2.17-1.88h51.19a66.9 66.9 0 003.56 3.16c3.82 3.17 8.99 6.04 13.51 3.99 3.76-1.71 5.41-6.27 5.39-10.4-.02-5.23-2.73-10.96-7.76-12.39z" fill="#f2bc44"/>
    <path d="M768.07 955.26c.61-.35 1.21-1.08.13-1.94-3.13-1.54-5.79-4.25-6.69-7.62-.12-.43-.2-.87-.25-1.32a9.12 9.12 0 00.25 3.33c.71 2.63 3.22 6.35 6.56 7.55zm79.33-.66c-1.33 1.12-1.08 2.01 0 2.01 3.97-1.63 5.98-4.98 6.69-7.62.29-1.08.37-2.22.25-3.33-.05.45-.13.89-.25 1.32-.9 3.36-3.56 6.08-6.69 7.62zm2.37 22.79c-4.52 2.05-9.69-.83-13.51-3.99a71.075 71.075 0 01-3.56-3.16h-51.19c-.71.64-1.43 1.27-2.17 1.88-3.82 3.17-8.99 6.04-13.51 3.99-3.45-1.57-5.12-5.53-5.36-9.37-.02.33-.03.65-.03.98-.02 4.13 1.63 8.69 5.39 10.4 4.52 2.05 9.69-.83 13.51-3.99.74-.61 1.46-1.24 2.17-1.88h51.19a66.9 66.9 0 003.56 3.16c3.82 3.17 8.99 6.04 13.51 3.99 3.76-1.71 5.41-6.27 5.39-10.4 0-.32-.01-.65-.04-.98-.24 3.83-1.91 7.8-5.36 9.37z" fill="#ce9736"/>
    <path d="M762.56 964.86c-.84 2.91.07 6.38 2.55 8.12.59.41 1.32.74 2.02.55.67-.18 1.15-.81 1.34-1.48.19-.67.13-1.38.05-2.07-.15-1.23-.36-2.46-.27-3.69.09-1.23.55-2.5 1.51-3.27 1.09-.87 2.86-1.21 3.15-2.58.22-1.05-.7-2.06-1.74-2.33-3.81-.98-7.68 3.51-8.61 6.74zm1.8-21.82c.51.27 1.14.19 1.67-.03s1-.57 1.51-.84c1.86-1.02 4.18-1.04 6.15-.27.57.22 1.29.49 1.74.08.31-.28.33-.77.15-1.15-.18-.37-.51-.64-.86-.87-1.59-1.03-3.58-1.35-5.46-1.08-.98.14-8.1 2.49-4.9 4.16zm75.85-1.26c-.53.37-1.08.75-1.43 1.29-.35.55-.44 1.3-.06 1.82.51.68 1.59.63 2.34.22.75-.41 1.32-1.08 2.06-1.52 1.12-.67 2.52-.74 3.81-.52.54.09 1.08.23 1.63.21.55-.01 1.13-.21 1.45-.65.51-.69.18-1.74-.49-2.28-.67-.53-1.58-.66-2.44-.68-2.68-.08-4.66.59-6.88 2.1z" fill="#fff9e9" opacity=".48"/>
    <path d="M800.33 891.04s5.27-1.14 5.65 8.47c.38 9.61.91 22.91 0 24.92-1.69 3.73-3.69 3.92-3.69 3.92l10.87-1.07s1.86-1.49 2.15-5.79c.38-5.53-.98-24.24-1.25-26.57-.51-4.46-3.15-5.03-3.15-5.03l-10.59 1.14z" fill="#f2bc44"/>
    <path d="M805.55 891.75c-.24.49-.09 1.09.18 1.56.28.47.67.86.98 1.31.68.99.9 2.22 1.1 3.41.22 1.3.45 2.6.67 3.9.05.31.21.71.52.68.53-1.23.39-2.64.24-3.97-.17-1.53-.35-3.07-.52-4.6-.06-.57-.13-1.15-.38-1.66-.4-.83-2.2-1.86-2.8-.63z" fill="#fff9e9" opacity=".48"/>
    <path d="M800.1 931.13c-.65 2.64.17 4.02 1.17 5.04 2.37 2.44 8.24 3 11.08 1.66 2.66-1.25 3.74-4.2 3.71-6.54-.02-1.51-.76-2.98-1.9-3.97-1.14-.99-2.65-1.52-4.16-1.57-.64-.02-1.43.16-1.6.78-.2.77.72 1.31 1.46 1.59.93.35 1.88.79 2.45 1.6.93 1.32.46 3.29-.74 4.38-1.2 1.09-2.97.98-4.58.8-3.25-.37-3.63-3.14-3.06-4.29.57-1.14 1.51-2.05 2.34-3.02.18-.22.38-.48.31-.76-.14-.57-1-.36-1.48-.02-1.54 1.07-5 1.97-5 4.31z" fill="#f2bc44"/>
    <path d="M805.61 932.92c-.45.79-.45 1.76-.41 2.67.11 2.32.36 4.62.77 6.91.23 1.32.6 2.76 1.71 3.5 1.14.77 2.88.42 3.64-.73.59-.9.57-2.05.54-3.12-.07-2.12-.14-4.24-.22-6.35-.03-.79-.06-1.61-.44-2.31-.86-1.59-4.61-2.29-5.6-.56z" fill="#f2bc44"/>
    <path d="M811.79 938.09c.99-.33 1.79-1.06 2.57-1.77-.34 0-.67-.17-.95-.36-.75-.5-1.41-1.2-1.66-2.07.01.04-.24.2-.27.26-.05.13.02.37.04.5l.12 1.13c.07.77.12 1.53.15 2.3z" fill="#ce9736"/>
    <path d="M806.43 933.85c-.24.62-.15 1.3-.07 1.96.18 1.36.36 2.71.55 4.07.09.65.18 1.32.56 1.86.19.27.6.5.83.26.08-.08.12-.2.14-.32.18-.84.03-1.72-.08-2.57-.11-.92-.18-1.84-.21-2.77-.02-.73.09-1.61.75-1.91.28-.13.71-.22.69-.53-.01-.21-.24-.32-.44-.4-1.17-.44-1.96-1.01-2.74.35z" fill="#fff9e9" opacity=".48"/>
    <g data-name="Layer 1-2">
      <path d="M413.67 328.09c0-1.23-.99-2.22-2.22-2.22H408c-1.23 0-2.22-.99-2.22-2.22v-3.39c0-.79.44-1.19 1.19-1.19h19.18c1.22 0 2.22.99 2.22 2.22v3.39c0 .75-.39 1.19-1.19 1.19h-5.53c-.75 0-1.19.39-1.19 1.19v18.48c0 .75-.39 1.19-1.19 1.19h-3.39c-1.22 0-2.22-.99-2.22-2.22V328.1zm45.74 16.5c.55 1.03-.08 2.14-1.3 2.14h-4.5c-.39 0-.75-.2-.91-.55l-4.11-7.94c-.08-.12-.2-.2-.31-.2h-.54c-1.25 0-2.26 1.01-2.26 2.26v4.16c0 1.25-1.01 2.26-2.26 2.26h-2.35c-1.25 0-2.26-1.01-2.26-2.26v-23.13c0-1.25 1.01-2.26 2.26-2.26h7.61c7.03 0 9.87 3 9.87 9.48 0 3.67-.91 6.24-3 7.75-.16.12-.2.31-.12.51l4.19 7.78zm-11.68-18.72c-1.25 0-2.26 1.01-2.26 2.26v.85c0 1.25 1.01 2.26 2.26 2.26h.97c1.89 0 2.84-.24 2.84-2.69s-.95-2.69-2.84-2.69h-.97zm38.9-6.8c1.23 0 2.22.99 2.22 2.22v3.39c0 .75-.39 1.19-1.19 1.19h-9.56c-.75 0-1.19.39-1.19 1.19v1.27c0 .75.44 1.19 1.19 1.19h5.08c1.23 0 2.22.99 2.22 2.22v3.39c0 .75-.39 1.19-1.19 1.19h-6.12c-.75 0-1.19.39-1.19 1.19v1.27c0 .75.44 1.19 1.19 1.19h8.52c1.23 0 2.22.99 2.22 2.22v2.35c0 1.23-.99 2.22-2.22 2.22h-14.52c-1.22 0-2.22-.99-2.22-2.22v-24.25c0-.79.44-1.19 1.19-1.19h15.55v-.03zm32.28 26.31c0 .87-.39 1.34-1.19 1.34h-4.42c-.75 0-1.19-.39-1.19-1.19v-2.39c0-1.22-.99-2.22-2.22-2.22h-2.36c-.75 0-1.19.39-1.19 1.19v2.39c0 1.23-.99 2.22-2.22 2.22h-3.39c-.75 0-1.19-.47-1.19-1.34v-16.75c0-4.98.79-10.27 9.67-10.27s9.67 5.3 9.67 10.27v16.75h.02zm-6.8-16.75c0-1.89-.28-2.84-2.89-2.84s-2.89.95-2.89 2.84v3.27c0 1.22.99 2.22 2.22 2.22h2.36c.79-.04 1.19-.44 1.19-1.22v-4.27zm23.95-.54c0-1.23-.99-2.22-2.22-2.22h-3.45c-1.23 0-2.22-.99-2.22-2.22v-3.39c0-.79.44-1.19 1.19-1.19h19.19c1.22 0 2.22.99 2.22 2.22v3.39c0 .75-.39 1.19-1.19 1.19h-5.53c-.75 0-1.19.39-1.19 1.19v18.48c0 .75-.39 1.19-1.19 1.19h-3.39c-1.23 0-2.22-.99-2.22-2.22V328.1zm37.53.78c-.79.16-1.19-.2-1.3-.99-.28-1.62-1.58-2.64-3.44-2.64-1.54 0-2.49.91-2.33 1.81.55 3.08 13.03 3 13.03 12.09 0 1.19-1.34 8.17-10.7 8.17-7.31 0-9.56-4.23-10.12-7.34-.22-1.24.58-2.43 1.81-2.7l3.54-.79c.79-.16 1.22.2 1.3 1.03.16 1.89 1.62 3 3.48 3s3.36-1.14 3.12-2.22c-.75-3.36-12.64-2.61-12.64-11.69-.04-1.19.67-8.17 9.52-8.17 8.14 0 10.03 5.3 10.27 8.14.04.71-.31 1.14-1.03 1.3l-4.5.99z"/>
      <g fill="#2db581">
        <path d="M444.31 201.38c-6.86 0-12.44.83-16.99 2.32-.68.22-1.37-.27-1.37-.97v-1.41a2.78 2.78 0 00-2.78-2.78H410.4c-1.54 0-2.78 1.24-2.78 2.78v35.46c0 .12 0 .23.04.34-.03 1.07-.04 2.14-.04 3.2v63.48c0 3.3 1.64 5.09 4.49 5.09h18.01s.13-.39.17-.97c.44-6.55 3.22-29.26 3.53-33.88.36-5.38 1.28-10.65 3.49-15.63.56-1.26 2.51-4.4 3.12-4.28.75.16 1.39 6.04 1.98 6.15.44.08 1.11-2.47 1.76-4.33.37-1.05 1.47-3.17 1.9-3.08.53.11 1.09 2.22 1.37 3.8.14.8.36 3.13 1.17 2.97 2.26-.42 4.52-.85 6.78-1.27 1.93-.37 3.86-.72 5.79-1.09 1.56-.29 2.96.93 2.97 2.51v.03c-.03 1.49-.23 2.81-.54 4.12-.94 3.83-3.31 6.35-7.19 7.5-.57.17-1.13.35-1.7.54-.51.17-1 .38-1.4.75-.57.53 4.62 30.12 5.89 35.39.12.46.53.8 1.01.8h16.29c2.99 0 4.49-1.8 4.49-5.09v-63.5c0-18.87-2.99-38.93-36.68-38.93z"/>
        <path d="M445.27 263.34c-.96-.04-1.66.59-1.7 1.54-.03.88.65 1.62 1.54 1.66.95.04 1.72-.66 1.75-1.59.02-.87-.68-1.57-1.59-1.61z"/>
      </g>
      <g fill="#11b0d4">
        <path d="M577.96 203.66c0-3.3-1.65-5.09-4.48-5.09H558.9c-.54 0-.99.42-1.04.96-2.2 30.73-6.24 60.16-6.24 60.16v.04l-4.28-4.53c-.21-.22-.5-.34-.81-.32-1.13.07-3.98.23-5.52.11-.32-.03-.63.12-.84.36l-1.97 2.25c-.6.69-1.73.32-1.81-.59l-.36-3.92c-.02-.21-.11-.41-.25-.58-.82-.95-1.73-2.19-2.2-2.86-.21-.29-.54-.45-.89-.44-1.09.05-3.53.12-5.12-.22-.46-.1-.8-.49-.81-.96-.1-2.53-.15-8.32 1.96-10.42.99-.98 2.92-1.53 5.12-1.9h.09c-.63 0-2.08-.25-2.68-.35a.35.35 0 01-.29-.29c-.26-2.6-.91-25.17-2.67-36.47h-19.21c-2.99 0-4.48 1.8-4.48 5.09v63.44c0 18.86 2.99 38.91 36.67 38.91 6.86 0 12.44-.84 16.98-2.32.68-.22 1.38.27 1.38.97v1.4c0 1.54 1.24 2.78 2.78 2.78h12.77a2.77 2.77 0 002.77-2.77v-35.44c0-.12-.02-.23-.03-.35.02-1.06.03-2.13.03-3.19v-63.45h.02z"/>
        <path d="M543.12 246.87c0 1.04.6 1.88 1.34 1.88s1.34-.84 1.34-1.88-.6-1.88-1.34-1.88-1.34.84-1.34 1.88zm-5.42 0c0 1.04.6 1.88 1.34 1.88s1.34-.84 1.34-1.88-.6-1.88-1.34-1.88-1.34.84-1.34 1.88zm-10.07 1.03h4.68c-.08-1.95-1.09-3.48-2.3-3.52-1.23-.04-2.3 1.52-2.39 3.52z"/>
      </g>
    </g>
  </g>
</svg>
