<svg xmlns="http://www.w3.org/2000/svg" viewBox="0 0 1608.38 1653.23">
  <g data-name="Layer 2">
    <g data-name="Capa 1">
      <path d="M1606.46 1533.92c0 65.9-359.62 119.32-803.23 119.32S0 1599.81 0 1533.92s359.62-119.32 803.23-119.32 803.23 53.42 803.23 119.32z" style="mix-blend-mode:multiply" fill="#e7cbbf"/>
      <path d="M1386.07 1407.25c0 11.57-9.14 20.94-20.4 20.94H208.46c-11.27 0-20.41-9.37-20.41-20.94V587.78c0-11.56 9.14-20.94 20.41-20.94h1157.21c11.27 0 20.4 9.37 20.4 20.94v819.47z" fill="#534da0"/>
      <path fill="#fff" d="M237.79 634.87h1098.54v729.66H237.79z"/>
      <path d="M1478.43 1494.69c0 18.51-14.37 33.52-32.1 33.52H128.88c-17.72 0-32.1-15.01-32.1-33.52v-57.57c0-18.51 14.37-33.52 32.1-33.52h1317.46c17.72 0 32.1 15.01 32.1 33.52v57.57z" fill="#312864"/>
      <g fill="#91cc86">
        <path d="M237.79 842.12h247.15l-26.95-95.47h-220.2v95.47zm328.78 289.14l-270.28 233.63h336.23l-65.95-233.63zm593.77 145.93l-151.86-161.21H598.6l70.27 248.91h491.47v-87.7zM494.35 746.65l26.94 95.47h229.18l-89.92-95.47h-166.2zm.47 130.44H237.79v487.8h5.01l313.27-270.8-61.25-217zM975.52 1081l-192.1-203.91H531.17L588.73 1081h386.79z"/>
        <path d="M889.63 635.23H462.88l21.58 76.45h191.19l122.89 130.44h91.09V635.23zm446.7 36.33l-141 141V1081h141V671.56zm-888.21 40.12l-21.58-76.45H237.79v76.45h210.33zm747.21 404.3v147.33l95.69 101.58h45.31v-248.91h-141zm-34.99 0h-103.81l103.81 110.2v-110.2zm34.99 198.34v50.57h47.63l-47.63-50.57z"/>
        <path d="M924.6 635.23v241.86h-93.11L1023.58 1081h136.76V798.07l162.84-162.84H924.6z"/>
      </g>
      <path d="M1337.96 635.53H236.39c-45.5 44.7-92.9 89.01-141.91 131.96h1390.09c-51.4-42.78-100.29-87.1-146.61-131.96z" fill="#f06ca9"/>
      <path d="M356.43 635.53c-35.74 44.7-72.87 89.01-111.31 131.96h1090.07c-40.29-42.78-78.59-87.1-114.84-131.96H356.43z" fill="#34c1d0"/>
      <path d="M492.76 635.53c-24.67 44.7-50.26 89.01-76.71 131.96h749.66c-27.69-42.78-53.89-87.12-78.72-131.96H492.76z" fill="#f06ca9"/>
      <path d="M619.84 635.53c-14.33 44.7-29.15 89.01-44.39 131.96h431.85c-15.94-42.78-30.94-87.12-45.12-131.96H619.84z" fill="#34c1d0"/>
      <path d="M738.68 635.53c-4.67 44.69-9.43 89.01-14.21 131.96h135.07c-4.95-42.78-9.52-87.12-13.76-131.96h-107.1z" fill="#f06ca9"/>
      <path d="M95.2 766.7c1.29 41.6 34.22 74.94 74.77 74.94s73.49-33.33 74.77-74.94H95.2z" fill="#ef5da2"/>
      <path d="M243.75 767.28c1.48 48.11 39.58 86.67 86.48 86.67s84.98-38.56 86.47-86.67H243.75z" fill="#0fa9ab"/>
      <path d="M415.71 767.18c1.37 44.38 36.51 79.93 79.77 79.93s78.37-35.55 79.75-79.93H415.72z" fill="#ef5da2"/>
      <path d="M574.15 767.77c1.28 41.71 34.3 75.14 74.95 75.14s73.66-33.43 74.95-75.14H574.14zm763.6-1.67c-1.49 48.12-39.58 86.67-86.48 86.67s-84.98-38.56-86.47-86.67h172.95z" fill="#0fa9ab"/>
      <path d="M1165.8 766c-1.36 44.38-36.51 79.95-79.75 79.95s-78.4-35.57-79.77-79.95h159.52z" fill="#ef5da2"/>
      <path d="M1007.37 766.6c-1.27 41.7-34.31 75.13-74.96 75.13s-73.68-33.42-74.98-75.13h149.94z" fill="#0fa9ab"/>
      <path d="M724.11 766.6c1.16 37.78 31.09 68.07 67.91 68.07s66.76-30.28 67.94-68.07H724.12zm759.56-.02c-1.27 41.3-33.97 74.38-74.22 74.38s-72.93-33.08-74.21-74.38h148.42z" fill="#ef5da2"/>
      <path d="M979.02 198.13C979.02 88.71 890.32 0 780.89 0S582.77 88.71 582.77 198.13c0 158.11 196.21 318.88 196.21 318.88s200.04-158.35 200.04-318.88z" fill="#f06ca9"/>
      <path d="M657.34 234.48C664.96 137.07 726.52 86 836.59 55.23c22.19-6.21-24.84-26.99-69.13-24.92-77.82 3.64-141.06 63.15-141.06 141.06 0 38.42 28.62 92.76 30.94 63.1z" style="mix-blend-mode:soft-light" fill="#fff" opacity=".5"/>
      <path d="M912.76 50.3c11.9 46.14 15.39 94.66 11.66 139.67-2.65 31.9-8.02 62.41-20.57 91.98-13.15 31.04-33.45 58.24-55.36 83.66-34.71 40.28-79.81 80.13-133.1 90.59 35.18 37.53 63.58 60.81 63.58 60.81s200.04-158.35 200.04-318.88c0-58.77-25.62-111.54-66.26-147.83z" style="mix-blend-mode:multiply" fill="#e6bccf"/>
      <path d="M902.48 177.25c0 65.25-52.9 118.15-118.15 118.15s-118.15-52.9-118.15-118.15 52.9-118.16 118.15-118.16 118.15 52.9 118.15 118.16z" fill="#fff"/>
      <path d="M1066.45 1598.63c0 4.16-3.37 7.53-7.53 7.53H544.11a7.52 7.52 0 01-7.52-7.53v-499.77c0-4.15 3.37-7.52 7.52-7.52h514.81c4.16 0 7.53 3.37 7.53 7.52v499.77z" fill="#fec128"/>
      <path d="M639.53 1206.78c34.13-33.7 93.4-17.86 92.56-47.32-.73-25.39-151.54-12.48-151.54-12.48-3.08 0-5.58 2.49-5.58 5.57 0 0-13.05 146.48 4.6 153.16 19.23 7.27 26.44-65.83 59.97-98.93z" style="mix-blend-mode:soft-light" fill="#fff" opacity=".5"/>
      <path d="M1008.43 1558.75c0 5.12-4.15 9.26-9.26 9.26H884.96c-5.12 0-9.26-4.14-9.26-9.26v-101.86c0-5.12 4.14-9.26 9.26-9.26h114.21c5.11 0 9.26 4.14 9.26 9.26v101.86zm-283.58-74.92c0 4.22-3.42 7.64-7.65 7.64H602.25a7.64 7.64 0 01-7.64-7.64c0-4.22 3.42-7.65 7.64-7.65H717.2a7.65 7.65 0 017.65 7.65zm0 29.41c0 4.21-3.42 7.64-7.65 7.64H602.25a7.64 7.64 0 110-15.28H717.2c4.22 0 7.65 3.42 7.65 7.64zm0 29.42c0 4.22-3.42 7.64-7.65 7.64H602.25a7.64 7.64 0 01-7.64-7.64 7.64 7.64 0 017.64-7.64H717.2c4.22 0 7.65 3.42 7.65 7.64z" fill="#feda61"/>
      <path d="M1058.92 1091.34h-50.91c-3.07 66.23-.63 269.15-6.83 305.04-4.33 25.11-18.62 55.03-38.45 72.71-24.28 21.66-59.8 29.87-91.09 29.67-35.98-.23-334.87-.18-334.87-.18l-.19 100.04c0 4.16 3.37 7.53 7.52 7.53h514.81c4.16 0 7.53-3.37 7.53-7.53v-499.77c0-4.15-3.37-7.52-7.53-7.52z" style="mix-blend-mode:multiply" fill="#ffe4c6"/>
      <path d="M1114.37 1256.04c0 5.54-4.49 10.03-10.03 10.03H503.45c-5.54 0-10.02-4.49-10.02-10.03l27.58-154.19c0-5.54 4.49-10.03 10.03-10.03h550.32c5.54 0 10.03 4.49 10.03 10.03l22.98 154.19z" fill="#f9a022"/>
      <path d="M1091.38 1101.85c0-5.54-4.49-10.03-10.03-10.03h-47.56c-8.27 19.04-17.41 37.64-28.75 55.04-11.86 18.19-25.82 35.34-43.35 48.37-20.27 15.07-42.94 23.16-67.38 28.89-65.45 15.34-132.56 14.82-199.38 14.82 0 0-197.33-.88-198.37-.49l-3.14 17.58c0 5.54 4.49 10.03 10.02 10.03h600.89c5.54 0 10.03-4.49 10.03-10.03l-22.98-154.19z" style="mix-blend-mode:multiply" fill="#fed8ba"/>
      <path fill="#f06ca9" d="M846.52 840.68h-96.11v139.95h-23.02l71.07 93.64 71.07-93.64h-23.01V840.68z"/>
      <path d="M403.07 1240.4c0 10.94-9.33 19.81-20.84 19.81H254.69c-11.51 0-20.85-8.87-20.85-19.81s9.33-19.81 20.85-19.81h127.54c11.51 0 20.84 8.87 20.84 19.81z" fill="#312864"/>
      <path d="M354.15 1084.48c0 8.49-7.24 15.37-16.17 15.37h-98.91c-8.93 0-16.17-6.88-16.17-15.37 0-8.48 7.24-15.36 16.17-15.36h98.91c8.93 0 16.17 6.88 16.17 15.36zm-159.51 0c0 4.75-4.05 8.6-9.05 8.6H130.2c-5.01 0-9.06-3.85-9.06-8.6s4.05-8.6 9.06-8.6h55.39c5 0 9.05 3.85 9.05 8.6z" fill="#34c1d0"/>
      <path d="M161.29 920.01c0 6.37-5.16 11.52-11.53 11.52H30.89c-6.36 0-11.52-5.15-11.52-11.52 0-6.36 5.16-11.52 11.52-11.52h118.87c6.37 0 11.53 5.16 11.53 11.52z" fill="#ef579f"/>
      <path d="M372.17 426.42c0 10.94-9.33 19.81-20.85 19.81H223.78c-11.51 0-20.85-8.87-20.85-19.81s9.33-19.81 20.85-19.81h127.54c11.51 0 20.85 8.87 20.85 19.81z" fill="#312864"/>
      <path d="M339.96 257.11c0 8.48-7.24 15.37-16.17 15.37h-98.91c-8.93 0-16.17-6.88-16.17-15.37 0-8.49 7.24-15.36 16.17-15.36h98.91c8.93 0 16.17 6.88 16.17 15.36zm-159.51 0c0 4.76-4.05 8.6-9.05 8.6h-55.39c-5.01 0-9.06-3.85-9.06-8.6s4.05-8.6 9.06-8.6h55.39c5 0 9.05 3.85 9.05 8.6z" fill="#34c1d0"/>
      <path d="M1406.56 374.31c0 10.94-9.33 19.81-20.84 19.81h-127.54c-11.51 0-20.84-8.87-20.84-19.81s9.33-19.81 20.84-19.81h127.54c11.51 0 20.84 8.87 20.84 19.81z" fill="#312864"/>
      <path d="M1374.34 205c0 8.49-7.24 15.37-16.17 15.37h-98.91c-8.93 0-16.17-6.88-16.17-15.37 0-8.49 7.24-15.36 16.17-15.36h98.91c8.93 0 16.17 6.88 16.17 15.36zm-159.51 0c0 4.75-4.05 8.6-9.06 8.6h-55.4c-5 0-9.06-3.85-9.06-8.6s4.05-8.6 9.06-8.6h55.4c5 0 9.06 3.85 9.06 8.6z" fill="#34c1d0"/>
      <path d="M610.93 190.09c0 6.37-5.16 11.53-11.53 11.53H480.53c-6.36 0-11.52-5.16-11.52-11.53 0-6.36 5.16-11.52 11.52-11.52H599.4c6.37 0 11.53 5.16 11.53 11.52z" fill="#ef579f"/>
      <path d="M1299.71 1173.62c0 10.94 9.34 19.82 20.84 19.82h127.54c11.51 0 20.85-8.87 20.85-19.82 0-10.94-9.33-19.81-20.85-19.81h-127.54c-11.51 0-20.84 8.87-20.84 19.81z" fill="#312864"/>
      <path d="M1375.36 924.83c0 8.49 7.24 15.37 16.17 15.37h98.9c8.93 0 16.17-6.88 16.17-15.37 0-8.48-7.24-15.36-16.17-15.36h-98.9c-8.93 0-16.17 6.88-16.17 15.36zm159.51 0c0 4.75 4.05 8.6 9.05 8.6h55.4c5 0 9.06-3.85 9.06-8.6s-4.05-8.6-9.06-8.6h-55.4c-5 0-9.05 3.85-9.05 8.6z" fill="#34c1d0"/>
      <path d="M1023.82 495.92c0 6.36 5.16 11.52 11.52 11.52h118.87c6.36 0 11.52-5.16 11.52-11.52 0-6.37-5.16-11.53-11.52-11.53h-118.87c-6.37 0-11.52 5.16-11.52 11.53z" fill="#ef579f"/>
    </g>
  </g>
</svg>
