<svg data-name="Layer 2" xmlns="http://www.w3.org/2000/svg" viewBox="0 0 3254.56 2721.41">
  <path d="M2894.97 783.84c-9.42 17.15-30.98 23.43-48.12 14.01-17.15-9.42-23.43-30.98-14.01-48.13 129.23-235.45 132.9-413.96 75.38-521.17-29.08-54.18-74.06-89.65-125.64-103.98-52.27-14.52-111.96-7.76-169.65 22.66-120.3 63.42-230.53 227.44-253.89 513.16-1.53 19.52-18.62 34.12-38.14 32.59-19.52-1.53-34.11-18.62-32.58-38.14 25.64-313.77 152.56-496.98 291.61-570.28 74.21-39.13 152.21-47.48 221.52-28.22 70 19.45 130.59 66.74 169.17 138.66 67.59 125.97 66.9 329.14-75.64 588.84zM319.61 749.72c9.42 17.15 3.14 38.71-14.01 48.13-17.15 9.42-38.7 3.14-48.12-14.01C114.93 524.14 114.25 320.97 181.83 195 220.41 123.08 281.01 75.79 351 56.34c69.32-19.26 147.31-10.91 221.53 28.22 139.05 73.3 265.96 256.51 291.61 570.28 1.53 19.52-13.06 36.61-32.58 38.14-19.53 1.53-36.61-13.06-38.14-32.59-23.36-285.72-133.6-449.74-253.89-513.16-57.69-30.42-117.38-37.19-169.66-22.66-51.58 14.33-96.56 49.8-125.64 103.98-57.53 107.21-53.85 285.72 75.38 521.17z" fill="#0b8ab5"/>
  <path d="M3233.62 525.98c-494.56-175.13-1012.28-182.35-1540.19-108.07-92.55 652.97-145.54 1339.08-80.13 1982.75 429.77 30.19 894.4 67.37 1338.11 52.27 101.05-24.4 202.1-48.79 303.16-73.18-164.28-524.51-154.01-1152.69-20.94-1853.77z" fill="#13b6ed" fill-rule="evenodd"/>
  <path d="M2317.46 2445.71c212.08 9.84 425.32 14.31 633.94 7.22 101.04-24.4 202.11-48.79 303.15-73.18-39.77-126.96-69.26-260.03-89.31-398.7h-.04c-62.08 110.43-144.88 133.77-252.34 53.5-75.57 259.95-286.95 384.09-595.4 411.16z" fill="#0f9ecf" fill-rule="evenodd"/>
  <path d="M3143.18 495.89c-247.44-77.14-500.42-114-757.35-121.24 130.16 26.54 256.37 43.59 410.03 89.54 111.4 33.32 122.44 39.43 113.84 141.63-26.18 311.08-51.83 932.41-10.66 1112.96l244.15-1222.89z" fill="#68c7fc" fill-rule="evenodd"/>
  <path d="M3233.62 525.98c-75.47-26.72-151.46-49.53-227.97-68.74-141.13 718.75-126.95 1369.93-54.25 1995.69 101.05-24.4 202.1-48.79 303.16-73.18-164.28-524.51-154.01-1152.69-20.94-1853.77z" fill="#0b98b5" fill-rule="evenodd"/>
  <path d="M2912.87 2034.56c9.31 140.99 22.49 280.3 38.53 418.37 101.04-24.4 202.11-48.79 303.15-73.18-40.58-129.81-69.79-263.97-89.31-398.7h-.04c-62.08 110.43-144.87 133.77-252.33 53.51z" fill="#107294" fill-rule="evenodd"/>
  <path d="M1396.65 520.31C957.94 466.25 396.07 573.18 0 722.89c162.55 522.84 207.05 1070.99 170.57 1636.51 85.89 24.88 171.77 49.75 257.65 74.62 320.45-32.57 775.96-45.59 1096.4-78.17 79.89-617.65 22-1331.65-127.98-1835.54z" fill="#21caed" fill-rule="evenodd"/>
  <path d="M179.32 1817.13c6.36 178.77 3.04 359.61-8.74 542.27 85.89 24.88 171.76 49.75 257.65 74.62 240.02-24.39 555.8-37.82 833.87-56.71-363.85-25.47-714.9-52.92-810.19-457.6-112.22 11.5-226.73-13.09-272.57-102.59z" fill="#0f9ecf" fill-rule="evenodd"/>
  <path d="M687.55 544.39c-242.59 37.97-480.16 101-677.69 174.8L451.22 1861.8c35.52-370.06 15.74-722.58-76.88-1073.22-18.21-68.94-36.18-103.03 22.57-128.12 98.3-41.99 190.84-81.83 290.64-116.07z" fill="#68c7fc" fill-rule="evenodd"/>
  <path d="M234.14 645.2C170.2 664.85 57.77 701.05 0 722.89c162.55 522.84 207.05 1070.99 170.57 1636.51 85.89 24.88 171.77 49.75 257.65 74.62 58.95-603.44 13.38-1269.8-194.08-1788.83z" fill="#0b98b5" fill-rule="evenodd"/>
  <path d="M179.32 1817.13c6.36 178.77 3.04 359.61-8.74 542.27 85.89 24.88 171.76 49.75 257.65 74.62 16.42-168.07 24.72-341.02 23.68-514.31-102.01 105.14-236.94 107.8-272.57-102.59z" fill="#107294" fill-rule="evenodd"/>
  <path d="M2876.01 1182.41c-144.89-104.99-280.29 54.03-147.49 172.36 116.34 80.27 191.05 272.52 119.54 368.68-175.35 235.74-431.89-40.11-528.21-185.68-16.78 84.29-17.59 148.48 3.56 239.88 151.53 284.89 552.31 267.75 677.66 23.46 113.38-220.96 30.3-439.92-125.05-618.71z" fill="#ffebeb" fill-rule="evenodd"/>
  <path d="M2699.39 1183.44c-36.57 41.24-38.03 111.48 29.13 171.32 116.34 80.27 191.05 272.52 119.54 368.68-29.46 39.62-61.24 64.72-94.15 78.5l.02.05c179.21-14.2 242.52-238.93 138.4-405.4-54.02-86.37-189.36-153.94-192.94-213.15zm-157.52 582.51c-93.07-58.98-175.91-158.5-222.02-228.17-16.78 84.29-17.59 148.48 3.56 239.88 53.03 99.69 136.59 162.35 228.17 191.28-57.68-53.61-77.1-135.31-9.7-202.99z" fill="#f7d1c7" fill-rule="evenodd"/>
  <path d="M2876.01 1182.41c-144.89-104.99-280.29 54.03-147.49 172.36 62.92 43.41 113.66 119.57 135.67 195.59 75.83 30.55 162.8-10.69 174.15-78.13-26.5-103.34-85.58-201.48-162.33-289.81z" fill="#f28f43" fill-rule="evenodd"/>
  <path d="M2699.39 1183.44c-36.57 41.24-38.03 111.48 29.13 171.32 62.92 43.41 113.66 119.57 135.67 195.59 25.91 10.43 53.1 12.48 78.15 7.98-8.07-224.95-238.03-293.66-242.95-374.9z" fill="#db6028" fill-rule="evenodd"/>
  <path d="M517.79 717.05c8.65 17.53 1.45 38.78-16.08 47.42-17.53 8.65-38.78 1.45-47.42-16.08C323.5 484.62 335.7 279.41 412.91 154.08 456.53 83.3 520.73 37.57 592.46 20.21c71.56-17.32 150.14-6.28 222.7 36.34 131.37 77.17 243.45 259.51 252.27 566.05.53 19.53-14.88 35.8-34.4 36.33-19.53.53-35.8-14.88-36.33-34.4-8-278.26-104.47-440.67-217.33-506.97C723.26 84.6 663.21 75.9 609.1 88.99c-53.95 13.05-102.57 47.98-136.01 102.25-65.85 106.88-73.61 287.2 44.7 525.81z" fill="#0b8ab5"/>
  <path d="M486.04 656.61c-42.04 0-76.11 34.07-76.11 76.1s34.07 76.11 76.11 76.11 76.1-34.07 76.1-76.11-34.07-76.1-76.1-76.1z" fill="#0b98b5" fill-rule="evenodd"/>
  <path d="M2695.39 659.35c-7.8 17.91-28.67 26.1-46.58 18.3-17.92-7.8-26.11-28.67-18.31-46.58 90.21-205.39 61.54-364.8-14.55-460.39-42.22-53.04-98.93-86.35-157.25-96.48-57.07-9.91-115.83 2.48-163.68 40.49-80.45 63.89-131.97 199.59-101.45 423.19 2.6 19.38-11 37.2-30.37 39.79-19.37 2.6-37.19-11-39.79-30.37-34.46-252.46 29.41-410.17 127.51-488.09 64.62-51.33 143.46-68.14 219.72-54.9 75.01 13.02 147.44 55.24 200.79 122.25 90.56 113.77 126.54 299.24 23.97 532.77z" fill="#0b8ab5"/>
  <path d="M2653.75 569.66c41.72-5.08 79.67 24.63 84.75 66.35 5.08 41.74-24.62 79.68-66.35 84.75-41.72 5.08-79.66-24.62-84.75-66.34-5.08-41.74 24.62-79.68 66.35-84.76z" fill="#0b98b5" fill-rule="evenodd"/>
  <path d="M1898.3 323.05c105.92-57.16 225.95-73.97 354.74-72.72 41.25 170.59 9.61 340.21-30.67 483.99-108.02-137.09-216.05-274.19-324.07-411.27z" fill="#f28f43" fill-rule="evenodd"/>
  <path d="M1898.3 323.06c47.26-25.51 97.33-42.98 149.74-54.39-19.23 119.66 119.28 248.64 217.24 261.04-8.85 71.85-25.02 140.79-42.91 204.62-108.02-137.09-216.06-274.19-324.07-411.27z" fill="#db6028" fill-rule="evenodd"/>
  <path d="M2148.64 644.39l-191.79-243.38c56.56-33.25 133.72-57.91 210.46-57.17 18.72 107.1.57 216.31-18.67 300.55z" fill="#1a1a1a" fill-rule="evenodd"/>
  <path d="M1200.13 323.05c-105.92-57.16-225.95-73.97-354.74-72.72-41.25 170.59-9.61 340.21 30.67 483.99 108.02-137.09 216.05-274.19 324.07-411.27z" fill="#f28f43" fill-rule="evenodd"/>
  <path d="M1200.13 323.06c-47.26-25.51-97.33-42.98-149.74-54.39 19.24 119.66-119.27 248.64-217.24 261.04 8.85 71.85 25.03 140.79 42.91 204.62 108.02-137.09 216.06-274.19 324.07-411.27z" fill="#db6028" fill-rule="evenodd"/>
  <path d="M949.78 644.39l191.79-243.38c-56.56-33.25-133.73-57.91-210.46-57.17-18.72 107.1-.57 216.31 18.66 300.55z" fill="#1a1a1a" fill-rule="evenodd"/>
  <path d="M1561.52 213.74c426.87 0 772.94 391.89 772.94 875.3s-346.06 875.29-772.94 875.29-772.95-391.89-772.95-875.29 346.06-875.3 772.95-875.3z" fill="#ffebeb" fill-rule="evenodd"/>
  <path d="M2205.63 605.1c81.38 138.63 128.84 305 128.84 483.93 0 345.75-177.04 644.62-434.05 786.84 222.27-408.62 379.85-984.68 305.21-1270.77z" fill="#f7d1c7" fill-rule="evenodd"/>
  <path d="M1984.46 1821.72c-121.53 90.14-266.81 142.61-422.94 142.61-426.88 0-772.95-391.88-772.95-875.3 0-259.32 99.62-492.27 257.85-652.55-129.14 402.66 46.24 751.82 362.22 914.57 384.35 197.91 552.98 351.27 575.82 470.66z" fill="#f7d1c7" fill-rule="evenodd"/>
  <path d="M1619.58 216.2c318.78 26.82 583.7 272.58 677.97 604.98-174.08 134.8-410.45 65.33-535.96-79.16-118.5-136.45-175.27-344.57-142.01-525.82z" fill="#f28f43" fill-rule="evenodd"/>
  <path d="M2205.65 605.18c39.42 65.32 70 138.75 91.89 215.99-24.54 19-50.33 33.93-76.86 45.18 7.7-100.36 3.57-189.81-15.04-261.18z" fill="#db6028" fill-rule="evenodd"/>
  <path d="M1549.8 785.9c99-28.03 156.21-131.74-7.22-120.14-183.58 13.03-77.31 106.13 7.22 120.14z" fill="#1a1a1a" fill-rule="evenodd"/>
  <path d="M1407.26 850.35c5.64 31.59 24.62 51.84 46.31 59.86 9.13 3.37 18.7 4.62 27.88 3.67 8.97-.93 17.61-3.96 25.12-9.16 17.09-11.82 28.78-35.42 26.61-71.94-1.1-18.5-2.02-32.67-2.93-46.96-.79-12.15-1.6-24.82-2.74-43.63l35.37-2.08c1.03 17.11 1.88 30.29 2.74 43.49.85 13.39 1.7 26.42 2.93 47.1 3.01 50.59-15.29 84.75-41.87 103.13-12.54 8.67-26.85 13.74-41.62 15.25-14.56 1.5-29.55-.41-43.68-5.62-32.59-12.05-60.96-41.58-69.06-87.03l34.94-6.1z" fill="#1a1a1a"/>
  <path d="M660.08 2648.56c59.11-375.59 118.09-839.92 5.34-1400.22 610.28-88.67 1214.34-155.3 1762.7-24.9-61.43 528.96-2 995.64 69.32 1396.65-549.85 142.05-1221.13 118.63-1837.36 28.47z" fill="#21caed" fill-rule="evenodd"/>
  <path d="M1810.82 1150.95c211.53 3.76 418.09 25.11 617.29 72.48-61.44 528.96-2 995.64 69.32 1396.64-71.6 18.51-145.27 34.18-220.6 47.28 93.89-25.23 149.6-93.43 142.75-145.81-51.27-391.99-109.16-747.89-72.46-1154.59 12.74-141.26-427.7-198.32-538.83-216.03l2.52.03z" fill-rule="evenodd" fill="#67d3fc"/>
  <path d="M660.07 2648.56c43.33-275.29 86.58-598.27 62.19-971.77v-.02c155.23 494.42 663.68 933.89 1109.39 1038.77-383.5 19.34-788.18-10.89-1171.57-66.98z" fill="#0eaecf" fill-rule="evenodd"/>
  <path d="M1745.03 1150.34c165.45-.35 315.6 9.34 474.25 33-23.78 62.55 13.39 90.98-10.39 153.54-229.07 186.55-462.03 23.35-463.87-186.54zm-1079.61 97.99c134.09-19.48 267.89-37.89 400.85-53.39l36.28 24.28c45.25 31.73 59.43 83.97 104.68 115.7-122.28 87.83-265.52 120.46-425.41 124.18-40.29-64.93-76.12-145.85-116.4-210.77z" fill="#0b8ab5" fill-rule="evenodd"/>
  <path d="M660.07 2648.56c59.11-375.59 118.09-839.91 5.34-1400.23 44.98-6.53 89.94-12.93 134.84-19.17 74.97 280.29 97.44 677.51 77.81 1039.87-13.38 246.87 117.71 335.45 519.33 448.76-187.24-6.77-375.71-22.81-560.8-45.51l-2.78-.34-2.49-.29-.28-.04-5.55-.69-2.78-.34-.43-.05-2.34-.3-2.77-.35-2.78-.34-1.14-.14c-51.41-6.45-102.48-13.43-153.17-20.84z" fill="#0b98b5" fill-rule="evenodd"/>
  <path d="M1290.93 1217.48c3.44-65.88-1.63-155.16-42.42-168.17-148.17-47.3-296.5 11.94-368.29 96.06-29.54 34.62-9.27 115.2 18.43 166.67 70.38 130.65 384.33 56.93 392.28-94.56z" fill="#f28f43" fill-rule="evenodd"/>
  <path d="M911.1 1114.73c-11.41 9.71-21.76 19.99-30.87 30.66-29.55 34.62-9.27 115.2 18.43 166.66 68.42 127.04 367.1 60.84 390.88-82.18-99.57 113.19-397.15 82.91-378.44-115.14z" fill="#db6028" fill-rule="evenodd"/>
  <path d="M1731.02 837.89c-3.36 46.02-28.49 78.3-59.64 93.64-13.61 6.7-28.37 10.19-42.93 10.19v-.07c-14.82 0-29.58-3.54-42.91-10.84h-.07c-28.29-15.52-50.03-47.61-52.26-98.29-.82-18.57-1.38-32.81-1.94-47.35-.46-11.94-.95-24.15-1.77-43.34l35.36-1.53c.72 16.66 1.26 30.26 1.77 43.62.51 13.26 1.03 26.29 1.94 47.07 1.6 36.49 15.7 58.76 33.94 68.77l-.02.03c8.03 4.38 16.95 6.5 25.96 6.5v-.07c9.28 0 18.66-2.21 27.27-6.45 20.78-10.23 37.6-32.36 39.93-64.37l35.37 2.5z" fill="#1a1a1a"/>
  <path d="M1841.07 447.16c58.01 0 110.28 66.86 116.73 149.34 6.46 82.47-35.34 149.35-93.35 149.35s-110.28-66.87-116.73-149.35c-6.46-82.47 35.35-149.34 93.35-149.34z" fill="#1a1a1a" fill-rule="evenodd"/>
  <path d="M1825.13 507.49c24.37 0 44.71 28.09 45.46 62.73.73 34.63-18.42 62.72-42.78 62.72s-44.71-28.09-45.46-62.72c-.74-34.64 18.42-62.73 42.78-62.73z" fill="#fff" fill-rule="evenodd"/>
  <path d="M1281.97 447.16c-58.01 0-110.28 66.86-116.73 149.34-6.46 82.47 35.34 149.35 93.35 149.35s110.28-66.87 116.73-149.35c6.46-82.47-35.34-149.34-93.35-149.34z" fill="#1a1a1a" fill-rule="evenodd"/>
  <path d="M1297.91 507.49c-24.36 0-44.71 28.09-45.46 62.73-.74 34.63 18.42 62.72 42.78 62.72s44.71-28.09 45.46-62.72c.75-34.64-18.42-62.73-42.78-62.73z" fill="#fff" fill-rule="evenodd"/>
  <path d="M1835.14 1217.48c-3.44-65.88 1.63-155.16 42.42-168.17 148.18-47.3 296.5 11.94 368.3 96.06 29.54 34.62 9.27 115.2-18.43 166.67-70.38 130.65-384.32 56.93-392.28-94.56z" fill="#f28f43" fill-rule="evenodd"/>
  <path d="M2214.98 1114.73c11.41 9.71 21.76 19.99 30.87 30.66 29.55 34.62 9.27 115.2-18.43 166.66-68.43 127.04-367.11 60.84-390.89-82.18 99.57 113.19 397.15 82.91 378.44-115.14z" fill="#db6028" fill-rule="evenodd"/>
  <path d="M1556.7 977.71c-29.68 33.59-66.51 42.59-111.25 33.86 16.44 140.85 230.77 146.96 223.04-17.88-38.96 12.82-86.45 5.23-111.79-15.98z" fill="#f7d1c7" fill-rule="evenodd"/>
  <path d="M1133.88 2221.89c0-6.37-5.16-11.53-11.53-11.53h-17.9c-6.37 0-11.53-5.16-11.53-11.53v-17.55c0-4.1 2.25-6.14 6.15-6.14h99.49c6.37 0 11.53 5.16 11.53 11.53v17.56c0 3.89-2.05 6.14-6.14 6.14h-28.68c-3.89 0-6.14 2.05-6.14 6.15v95.86c0 3.89-2.05 6.15-6.15 6.15h-17.56c-6.37 0-11.53-5.16-11.53-11.53v-85.09zm237.2 85.56c2.87 5.33-.41 11.06-6.76 11.06h-23.35c-2.05 0-3.89-1.02-4.71-2.87l-21.3-41.17c-.41-.62-1.02-1.02-1.64-1.02h-2.81c-6.48 0-11.74 5.25-11.74 11.74v21.59c0 6.48-5.25 11.74-11.74 11.74h-12.17c-6.48 0-11.74-5.25-11.74-11.74v-119.91c0-6.48 5.25-11.74 11.74-11.74h39.47c36.46 0 51.21 15.57 51.21 49.16 0 19.05-4.71 32.36-15.57 40.15-.82.62-1.02 1.64-.62 2.66l21.71 40.35zm-60.57-97.09c-6.48 0-11.74 5.25-11.74 11.74v4.38c0 6.48 5.25 11.74 11.74 11.74h5.06c9.83 0 14.75-1.23 14.75-13.93s-4.92-13.93-14.75-13.93h-5.06zm201.65-35.23c6.37 0 11.53 5.16 11.53 11.53v17.55c0 3.89-2.05 6.14-6.15 6.14h-49.57c-3.89 0-6.14 2.05-6.14 6.15v6.55c0 3.89 2.25 6.15 6.14 6.15h26.36c6.37 0 11.53 5.16 11.53 11.53v17.55c0 3.89-2.05 6.14-6.15 6.14h-31.75c-3.89 0-6.14 2.05-6.14 6.15v6.55c0 3.89 2.25 6.14 6.14 6.14h44.18c6.37 0 11.53 5.16 11.53 11.53v12.17c0 6.37-5.16 11.53-11.53 11.53h-75.26c-6.37 0-11.53-5.16-11.53-11.53v-125.71c0-4.1 2.25-6.14 6.14-6.14h80.64zm167.42 136.42c0 4.5-2.05 6.96-6.15 6.96h-22.94c-3.89 0-6.15-2.05-6.15-6.15v-12.43c0-6.37-5.16-11.53-11.53-11.53h-12.23c-3.89 0-6.15 2.05-6.15 6.14v12.43c0 6.37-5.16 11.53-11.53 11.53h-17.55c-3.89 0-6.14-2.46-6.14-6.96v-86.85c0-25.81 4.1-53.26 50.18-53.26s50.19 27.45 50.19 53.26v86.85zm-35.23-86.85c0-9.83-1.43-14.75-14.95-14.75s-14.95 4.92-14.95 14.75v16.94c0 6.37 5.16 11.53 11.53 11.53h12.23c4.1-.2 6.14-2.25 6.14-6.35v-22.12zm124.14-2.81c0-6.37-5.16-11.53-11.53-11.53h-17.9c-6.37 0-11.53-5.16-11.53-11.53v-17.55c0-4.1 2.25-6.14 6.15-6.14h99.49c6.37 0 11.53 5.16 11.53 11.53v17.56c0 3.89-2.05 6.14-6.14 6.14h-28.68c-3.89 0-6.14 2.05-6.14 6.15v95.86c0 3.89-2.05 6.15-6.15 6.15h-17.55c-6.37 0-11.53-5.16-11.53-11.53v-85.09zm194.6 4.03c-4.1.82-6.14-1.02-6.76-5.12-1.43-8.4-8.19-13.72-17.82-13.72-7.99 0-12.9 4.71-12.09 9.42 2.87 15.98 67.6 15.57 67.6 62.68 0 6.15-6.96 42.4-55.51 42.4-37.88 0-49.55-21.93-52.5-38.07-1.17-6.42 3.01-12.59 9.39-14l18.33-4.06c4.1-.82 6.35 1.02 6.76 5.33.82 9.83 8.4 15.57 18.02 15.57s17.41-5.94 16.18-11.47c-3.89-17.41-65.55-13.52-65.55-60.63-.2-6.15 3.48-42.4 49.37-42.4 42.2 0 52.03 27.45 53.26 42.2.2 3.69-1.64 5.94-5.33 6.76l-23.35 5.12z" fill="#fff"/>
  <g fill="#fff">
    <path d="M1292.74 1564.9c-35.57 0-64.53 4.33-88.11 12.03-3.52 1.15-7.11-1.37-7.11-5.07v-7.32c0-7.94-6.44-14.38-14.38-14.38h-66.22c-7.95 0-14.39 6.44-14.39 14.39v183.86c0 .6.07 1.2.18 1.77-.13 5.54-.18 11.07-.18 16.59v329.17c0 17.08 8.54 26.4 23.29 26.4h93.37s.67-2.04.87-5.06c2.26-33.97 16.69-151.7 18.29-175.64 1.85-27.88 6.6-55.22 18.1-81.07 2.9-6.52 13.04-22.85 16.15-22.19 3.9.82 7.24 31.31 10.31 31.85 2.26.4 5.74-12.81 9.14-22.48 1.92-5.46 7.6-16.45 9.85-15.99 2.75.56 5.63 11.55 7.1 19.66.76 4.16 1.85 16.2 6.09 15.42 11.72-2.16 23.43-4.39 35.15-6.59 10-1.88 20.01-3.77 30.01-5.64 8.1-1.52 15.32 4.8 15.37 13.04v.12c-.15 7.76-1.2 14.6-2.84 21.35-4.85 19.86-17.19 32.92-37.28 38.9-2.95.87-5.89 1.8-8.8 2.8-2.63.9-5.18 1.97-7.25 3.89-2.95 2.74 23.95 156.18 30.53 183.53a5.35 5.35 0 005.23 4.1h84.42c15.53 0 23.29-9.32 23.29-26.4v-329.17c0-97.82-15.52-201.85-190.2-201.85z"/>
    <path d="M1297.73 1886.15c-5-.2-8.61 3.08-8.78 7.98-.16 4.55 3.38 8.38 7.96 8.6 4.91.24 8.95-3.43 9.06-8.23.11-4.48-3.53-8.17-8.24-8.36z"/>
  </g>
  <g fill="#fff">
    <path d="M1985.74 1576.7c0-17.08-8.58-26.41-23.27-26.41h-75.58c-2.82 0-5.16 2.19-5.36 5-11.41 159.35-32.31 311.91-32.31 311.91v.23l-22.19-23.5c-1.1-1.16-2.6-1.78-4.2-1.68-5.83.37-20.61 1.18-28.62.57-1.65-.13-3.25.59-4.34 1.83l-10.2 11.67c-3.12 3.57-9 1.66-9.42-3.06l-1.83-20.34c-.1-1.13-.54-2.15-1.29-3.01-4.27-4.9-8.97-11.37-11.41-14.82a5.338 5.338 0 00-4.62-2.25c-5.67.26-18.28.58-26.53-1.16a5.31 5.31 0 01-4.23-5.02c-.52-13.1-.8-43.1 10.16-54.03 5.12-5.1 15.14-7.93 26.54-9.85h.48c-3.28 0-10.82-1.27-13.89-1.81-.81-.15-1.4-.76-1.48-1.55-1.35-13.49-4.7-130.49-13.84-189.13h-99.57c-15.52 0-23.27 9.32-23.27 26.41v329.01c0 97.79 15.51 201.77 190.13 201.77 35.57 0 64.51-4.35 88.06-12.06 3.52-1.15 7.11 1.37 7.11 5.07v7.27c0 7.96 6.45 14.41 14.41 14.41h66.2c7.92 0 14.34-6.42 14.34-14.34v-183.77c0-.6-.08-1.19-.15-1.79.08-5.52.15-11.04.15-16.56V1576.7z"/>
    <path d="M1805.1 1800.76c0 5.38 3.11 9.74 6.94 9.74s6.94-4.36 6.94-9.74-3.11-9.74-6.94-9.74-6.94 4.36-6.94 9.74zm-28.13 0c0 5.38 3.11 9.74 6.94 9.74s6.94-4.36 6.94-9.74-3.11-9.74-6.94-9.74-6.94 4.36-6.94 9.74zm-52.18 5.37h24.25c-.4-10.11-5.65-18.07-11.91-18.25-6.41-.19-11.93 7.88-12.35 18.25z"/>
  </g>
</svg>
