<svg xmlns="http://www.w3.org/2000/svg" data-name="Layer 2" viewBox="0 0 394.1 457.95">
  <ellipse cx="197.05" cy="346.01" rx="197.05" ry="111.94" fill="#f5f5f5"/>
  <path d="M279.06 416.59l-147.1-84.93c-5.67-3.27-5.67-11.46 0-14.73l14.51-9.15c5.1-2.94 11.37-2.93 16.47 0l147.1 84.93c5.67 3.27 5.67 11.46 0 14.73l-14.51 9.15a16.504 16.504 0 01-16.47 0z" fill="#e0e0e0"/>
  <ellipse cx="55.4" cy="320.84" rx="31.92" ry="18.33" fill="#e6e6e6"/>
  <path d="M331.21 343.37l14.01 8.05s-7.15-22.47-3.34-45.13c1.44-8.55 4.53-12.81 5.61-15.1 1.09-2.29 9.45-16.44 2-22.92-7.44-6.48-24.78 6.55-23.84 41.41.48 17.89 5.57 33.68 5.57 33.68z" fill="#2fb583"/>
  <path d="M331.21 343.37l14.01 8.05s-7.15-22.47-3.34-45.13c1.44-8.55 4.53-12.81 5.61-15.1 1.09-2.29 9.45-16.44 2-22.92-7.44-6.48-24.78 6.55-23.84 41.41.48 17.89 5.57 33.68 5.57 33.68z" opacity=".5"/>
  <path d="M337.72 347.61c-.2 0-.39-.12-.47-.33-.05-.14-5.4-14.77-5.22-38.27.17-23.62 12.51-36.26 12.64-36.38.2-.2.51-.2.71 0 .2.19.2.51 0 .71-.12.12-12.18 12.5-12.35 35.68-.17 23.31 5.11 37.77 5.16 37.92a.496.496 0 01-.46.67z" fill="#fff"/>
  <path d="M337.05 346.81l19.14 10.96c4.15 2.37 9.57 1.35 12.22-2.63 1.1-1.64 1.77-3.81 1.51-6.65-.92-9.94-5.24-12.23.06-16.66 5.29-4.43 6.67-4.74 6.36-9.02-.31-4.28-3.21-6.12-4.59-7.8-1.38-1.68-5.2-5.2-2.6-10.4s6.14-10.23.76-12.54c-3.21-1.38-8.56.46-12.08 4.28-3.52 3.82-6.42 6.57-9.78 7.49-3.36.92-10.4 1.07-10.09 6.88.31 5.81 1.84 7.8.46 10.4-2.6 4.89-13.91 7.64-1.38 25.69z" fill="#2fb583"/>
  <path d="M346.51 352.72c-.25 0-.47-.19-.5-.45-.03-.34-2.94-34.66 20.65-57.5.2-.19.51-.19.71.01.19.2.19.52-.01.71-23.26 22.51-20.38 56.35-20.35 56.69.03.27-.18.52-.45.54h-.05z" fill="#fff"/>
  <path d="M350.3 323.18c-.26 0-.47-.2-.5-.46-.78-9.11-7.17-13.69-7.23-13.73a.499.499 0 01-.12-.7c.16-.23.47-.28.7-.12.28.2 6.83 4.9 7.65 14.47.02.28-.18.52-.45.54h-.04zm-1.63 5.9a.494.494 0 01-.38-.82c.24-.28 6.15-6.8 20.01-5.07.27.03.47.28.43.56-.03.27-.29.46-.56.43-13.3-1.67-19.07 4.67-19.13 4.73-.1.11-.24.17-.38.17z" fill="#fff"/>
  <path d="M274.57 406.44L145.2 331.75c-9.13-5.27-16.53-19.41-16.53-31.58V23.16c0-12.17 7.4-17.76 16.53-12.49l129.37 74.69c9.13 5.27 16.53 19.41 16.53 31.58v277.02c0 12.17-7.4 17.76-16.53 12.49z" fill="#455a64"/>
  <path d="M289.47 76.67L160.1 1.98c-3.9-2.25-7.49-2.51-10.31-1.13-.35.17-.68.37-1.01.59l-14.49 8.43c2.91-1.74 6.73-1.62 10.92.8l129.37 74.69c9.13 5.27 16.53 19.41 16.53 31.58v277.02c0 6.43-2.07 11.03-5.37 13.15l14.3-8.33c3.64-1.94 5.96-6.69 5.96-13.5V108.25c0-12.17-7.4-26.31-16.53-31.58z" fill="#37474f"/>
  <path d="M291.1 116.93v277.02c0 6.43-2.07 11.03-5.37 13.15l14.3-8.33c3.64-1.94 5.96-6.69 5.96-13.5V108.23l-14.9 8.65v.06z" fill="#263238"/>
  <path fill="#37474f" d="M306 129.75l-14.9 8.6v6.72l14.9-8.6v-6.72zm-6.53 44.7c-1.33.77-2.41-.05-2.41-1.82v-14.45c0-1.78 1.08-3.84 2.41-4.61 1.33-.77 2.41.05 2.41 1.82v14.45c0 1.78-1.08 3.84-2.41 4.61z"/>
  <path d="M297.06 172.62v-14.45c0-1.78 1.08-3.84 2.41-4.61.58-.34 1.11-.35 1.52-.14v-.02l-1.8-.93v.02c-.43-.24-.97-.23-1.57.12-1.33.77-2.41 2.83-2.41 4.61v14.45c0 .96.32 1.62.82 1.93s1.89 1 1.89 1v-.02c-.52-.29-.87-.96-.87-1.95z" fill="#455a64"/>
  <path d="M299.47 209.42c-1.33.77-2.41-.05-2.41-1.82v-14.45c0-1.78 1.08-3.84 2.41-4.61 1.33-.77 2.41.05 2.41 1.82v14.45c0 1.78-1.08 3.84-2.41 4.61z" fill="#37474f"/>
  <path d="M297.06 207.6v-14.45c0-1.78 1.08-3.84 2.41-4.61.58-.34 1.11-.35 1.52-.14v-.02l-1.8-.93v.02c-.43-.24-.97-.23-1.57.12-1.33.77-2.41 2.83-2.41 4.61v14.45c0 .96.32 1.62.82 1.93s1.89 1 1.89 1v-.02c-.52-.29-.87-.96-.87-1.95z" fill="#455a64"/>
  <path d="M270.08 93.14L142.93 19.72c-2.34-1.35-5.26.34-5.26 3.04v277.41c0 9.26 6.56 20.63 14.59 25.26l124.05 71.62c2.57 1.49 5.79-.37 5.79-3.34V113.98c0-7.64-5.41-17.02-12.03-20.84z" fill="#ba68c8"/>
  <path d="M270.08 93.14L142.93 19.72c-2.34-1.35-5.26.34-5.26 3.04v277.41c0 9.26 6.56 20.63 14.59 25.26l124.05 71.62c2.57 1.49 5.79-.37 5.79-3.34V113.98c0-7.64-5.41-17.02-12.03-20.84z" fill="#fff" opacity=".9"/>
  <path fill="#455a64" d="M180.95 38.89l1.97 8.3 42.14 24.29 7.28-3.87-51.39-28.72z"/>
  <path d="M193.34 46.91c0 1.38-.97 1.93-2.16 1.25s-2.16-2.36-2.16-3.74.97-1.93 2.16-1.25c1.19.69 2.16 2.36 2.16 3.74zm28.39 17.54c-.22 0-.45-.06-.66-.17l-21.52-12.03c-.65-.36-.88-1.19-.52-1.84.36-.65 1.19-.88 1.84-.52l21.52 12.03c.65.36.88 1.19.52 1.84-.25.44-.71.69-1.18.69z" fill="#263238"/>
  <path d="M164.33 77.46c-1.31-.76-2.26-.1-2.26 1.57s.95 3.46 2.26 4.22c.78.45 1.76.46 2.48 0l2.09 3.78c-1.22.83-3.07.75-4.75-.23-3.35-1.93-5.78-6.09-5.78-9.85s2.49-4.96 5.92-2.99c1.67.96 3.49 2.91 4.61 4.97l-2.09 1.65c-.65-1.4-1.64-2.64-2.48-3.12zm16.59 12.53c0 3.74-2.52 5.04-6 3.03-3.47-2.01-6-6.2-6-9.96s2.52-4.96 6-2.96c3.47 2.01 6 6.16 6 9.89zm-8.29-4.77c0 1.73 1.09 3.63 2.34 4.35 1.25.72 2.24.02 2.24-1.71s-1-3.54-2.24-4.26c-1.26-.73-2.34-.11-2.34 1.62zm12.32.81l4.32 8.97v-6.48l3.27 1.89v12.61l-3.02-1.74-4.3-8.92v6.44l-3.29-1.9V84.29l3.02 1.75zm18.28 10.55v3.29l-3.12-1.8v9.32l-3.61-2.09v-9.32l-3.1-1.79V90.9l9.83 5.68zm7.04 14.9l-4.1-2.37-.56 1.46-3.71-2.14 4.61-9.95 3.71 2.14 4.44 15.17-3.85-2.22-.55-2.1zm-.89-3.5l-1.12-4.34-1.15 3.02 2.27 1.31zm11.02 1.86c-1.31-.76-2.26-.1-2.26 1.57s.95 3.46 2.26 4.22c.78.45 1.76.46 2.48 0l2.09 3.78c-1.22.83-3.07.75-4.75-.23-3.35-1.93-5.78-6.09-5.78-9.85s2.49-4.96 5.92-2.99c1.67.96 3.49 2.91 4.61 4.97l-2.09 1.65c-.65-1.4-1.63-2.64-2.48-3.12zm14.43 4.98v3.29l-3.12-1.8v9.32l-3.61-2.09v-9.32l-3.1-1.79v-3.29l9.83 5.68zm10.67 15.48c.89.51 1.57.12 1.57-1.14v-7.27l3.62 2.09v7.27c0 3.35-2.04 4.34-5.2 2.52-3.18-1.84-5.28-5.23-5.28-8.57v-7.27l3.61 2.09v7.27c0 1.24.78 2.5 1.68 3.02zm11.02.05c-.41-.23-.67-.24-.67.14 0 1.58 5.66 3.86 5.66 8.43 0 2.81-2.13 2.82-4.6 1.39-1.9-1.1-4.02-3.06-5.47-5.17l1.34-2.36c1.12 1.73 3.05 3.72 4.16 4.36.53.31.87.31.87-.14 0-1.64-5.66-3.82-5.66-8.25 0-2.52 1.84-3.04 4.67-1.4 1.73 1 3.52 2.63 4.75 4.24l-1.31 2.41c-1.11-1.34-2.8-3.09-3.75-3.64z" fill="#2fb583"/>
  <g data-name="Speech bubble">
    <path d="M200.85 179.76a25.611 25.611 0 005.78-16.23c0-14.19-11.51-25.7-25.7-25.7s-25.7 11.51-25.7 25.7 11.51 25.7 25.7 25.7c4.82 0 9.33-1.33 13.19-3.64l12.51 5.43-5.78-11.26z" fill="#e5e5e5"/>
    <g data-name="Layer 1-2">
      <path d="M167.9 168.97c0-.18-.14-.32-.32-.32h-.49c-.18 0-.32-.14-.32-.32v-.48c0-.11.06-.17.17-.17h2.75c.18 0 .32.14.32.32v.48c0 .11-.06.17-.17.17h-.79c-.11 0-.17.06-.17.17v2.65c0 .11-.06.17-.17.17h-.48c-.18 0-.32-.14-.32-.32v-2.35zm6.55 2.36c.08.15-.01.31-.19.31h-.64c-.06 0-.11-.03-.13-.08l-.59-1.14s-.03-.03-.05-.03h-.08c-.18 0-.32.15-.32.32v.6c0 .18-.15.32-.32.32h-.34c-.18 0-.32-.15-.32-.32V168c0-.18.15-.32.32-.32h1.09c1.01 0 1.41.43 1.41 1.36 0 .53-.13.89-.43 1.11-.02.02-.03.05-.02.07l.6 1.11zm-1.67-2.68c-.18 0-.32.15-.32.32v.12c0 .18.15.32.32.32h.14c.27 0 .41-.03.41-.38s-.14-.38-.41-.38h-.14zm5.57-.97c.18 0 .32.14.32.32v.48c0 .11-.06.17-.17.17h-1.37c-.11 0-.17.06-.17.17v.18c0 .11.06.17.17.17h.73c.18 0 .32.14.32.32v.48c0 .11-.06.17-.17.17h-.88c-.11 0-.17.06-.17.17v.18c0 .11.06.17.17.17h1.22c.18 0 .32.14.32.32v.34c0 .18-.14.32-.32.32h-2.08c-.18 0-.32-.14-.32-.32v-3.47c0-.11.06-.17.17-.17h2.23zm4.62 3.76c0 .12-.06.19-.17.19h-.63c-.11 0-.17-.06-.17-.17v-.34c0-.18-.14-.32-.32-.32h-.34c-.11 0-.17.06-.17.17v.34c0 .18-.14.32-.32.32h-.48c-.11 0-.17-.07-.17-.19v-2.4c0-.71.11-1.47 1.39-1.47s1.39.76 1.39 1.47v2.4zm-.97-2.4c0-.27-.04-.41-.41-.41s-.41.14-.41.41v.47c0 .18.14.32.32.32h.34c.11 0 .17-.06.17-.18v-.61zm3.43-.07c0-.18-.14-.32-.32-.32h-.49c-.18 0-.32-.14-.32-.32v-.48c0-.11.06-.17.17-.17h2.75c.18 0 .32.14.32.32v.48c0 .11-.06.17-.17.17h-.79c-.11 0-.17.06-.17.17v2.65c0 .11-.06.17-.17.17h-.48c-.18 0-.32-.14-.32-.32v-2.35zm5.38.11c-.11.02-.17-.03-.19-.14-.04-.23-.23-.38-.49-.38-.22 0-.36.13-.33.26.08.44 1.87.43 1.87 1.73 0 .17-.19 1.17-1.53 1.17-1.05 0-1.37-.61-1.45-1.05-.03-.18.08-.35.26-.39l.51-.11c.11-.02.18.03.19.15.02.27.23.43.5.43s.48-.16.45-.32c-.11-.48-1.81-.37-1.81-1.67 0-.17.1-1.17 1.36-1.17 1.17 0 1.44.76 1.47 1.17 0 .1-.05.16-.15.19l-.64.14z" fill="#010101"/>
      <g fill="#2db582">
        <path d="M172.29 150.82c-.98 0-1.78.12-2.43.33-.1.03-.2-.04-.2-.14v-.2c0-.22-.18-.4-.4-.4h-1.83c-.22 0-.4.18-.4.4v14.68c0 .47.24.73.64.73h2.58s.02-.06.02-.14c.06-.94.46-4.19.51-4.85.05-.77.18-1.53.5-2.24.08-.18.36-.63.45-.61.11.02.2.86.28.88.06.01.16-.35.25-.62.05-.15.21-.45.27-.44.08.02.16.32.2.54.02.11.05.45.17.43l.97-.18c.28-.05.55-.1.83-.16.22-.04.42.13.42.36 0 .22-.03.41-.08.59-.13.55-.47.91-1.03 1.07-.08.02-.16.05-.24.08-.07.02-.14.05-.2.11-.08.08.66 4.31.84 5.07.02.07.08.11.14.11h2.33c.43 0 .64-.26.64-.73v-9.09c0-2.7-.43-5.58-5.25-5.58z"/>
        <path d="M172.43 159.69c-.14 0-.24.08-.24.22 0 .13.09.23.22.24.14 0 .25-.09.25-.23 0-.12-.1-.23-.23-.23z"/>
      </g>
      <g fill="#11b0d4">
        <path d="M191.43 151.15c0-.47-.24-.73-.64-.73h-2.09c-.08 0-.14.06-.15.14-.31 4.4-.89 8.62-.89 8.62l-.61-.64a.166.166 0 00-.12-.05c-.16.01-.57.03-.79.02-.05 0-.09.02-.12.05l-.28.32c-.09.1-.25.05-.26-.08l-.05-.56s-.02-.06-.04-.08c-.12-.14-.25-.31-.32-.41a.161.161 0 00-.13-.06c-.16 0-.5.02-.73-.03-.07-.01-.11-.07-.12-.14-.01-.36-.02-1.19.28-1.49.14-.14.42-.22.73-.27h.01c-.09 0-.3-.04-.38-.05-.02 0-.04-.02-.04-.04-.04-.37-.13-3.6-.38-5.22h-2.75c-.43 0-.64.26-.64.73v9.09c0 2.7.43 5.57 5.25 5.57.98 0 1.78-.12 2.43-.33.1-.03.2.04.2.14v.2c0 .22.18.4.4.4h1.83c.22 0 .4-.18.4-.4v-14.68z"/>
        <path d="M186.44 157.34c0 .15.09.27.19.27s.19-.12.19-.27-.09-.27-.19-.27-.19.12-.19.27zm-.78 0c0 .15.09.27.19.27s.19-.12.19-.27-.09-.27-.19-.27-.19.12-.19.27zm-1.44.14h.67c-.01-.28-.16-.5-.33-.5-.18 0-.33.22-.34.5z"/>
      </g>
    </g>
  </g>
  <path d="M73.02 130.77l-39.77-22.96c-1.2-.69-2.3-.77-3.17-.35-.11.05-.21.11-.31.18l-8.65 5.07s.04-.02.05-.03c-1.09.62-1.78 2.06-1.78 4.11v44.22c0 3.74 2.27 8.09 5.08 9.71l39.77 22.96c1.36.78 2.59.78 3.5.15a.18.18 0 01-.07.05l8.59-5.04c1.12-.6 1.83-2.06 1.83-4.15v-44.22c0-3.74-2.27-8.09-5.08-9.71z" fill="#2fb583"/>
  <path d="M76.68 134.96c-.92-1.81-2.22-3.36-3.66-4.19l-39.77-22.96c-1.2-.69-2.3-.77-3.17-.35-.11.05-.21.11-.31.18l-8.65 5.07c.9-.54 2.07-.5 3.36.25l39.77 22.96c1.49.86 2.82 2.49 3.75 4.38l8.68-5.34z" fill="#2fb583"/>
  <path d="M69.33 189.84c0 1.98-.64 3.39-1.65 4.04l8.59-5.04c1.12-.6 1.83-2.06 1.83-4.15v-44.22c0-1.82-.54-3.79-1.42-5.52L68 140.29c.82 1.68 1.33 3.57 1.33 5.32v44.22z" fill="#2fb583"/>
  <path d="M76.68 135.06c-.92-1.81-2.22-3.36-3.66-4.19l-39.77-22.96c-1.2-.69-2.3-.77-3.17-.35-.11.05-.21.11-.31.18l-8.65 5.07c.9-.54 2.07-.5 3.36.25l39.77 22.96c1.49.86 2.82 2.49 3.75 4.38l8.68-5.34z" opacity=".3"/>
  <path d="M69.33 189.84c0 1.98-.64 3.39-1.65 4.04l8.59-5.04c1.12-.6 1.83-2.06 1.83-4.15v-44.22c0-1.82-.54-3.79-1.42-5.52L68 140.29c.82 1.68 1.33 3.57 1.33 5.32v44.22z" opacity=".6"/>
  <path d="M57.67 158.3c0 5.72-2.27 7.68-5.68 5.71-1.88-1.09-3.21-2.81-3.79-4.97-.97 1.23-2.55 1.31-4.74.05-3.57-2.06-6.4-6.96-6.4-11.78s2.8-6.44 6.4-4.37c1.83 1.06 3.27 2.62 4.27 4.57v-1.89l3.77 2.17v10.36c0 1.54.58 2.38 1.33 2.81 1.27.74 2.05-.51 2.05-4.22 0-6.49-4.15-13.37-10.3-16.92-6.18-3.57-10.3-1.09-10.3 5.6s4.04 13.98 10.19 17.53c1.74 1.01 3.71 1.73 5.46 1.74l.89 3.45c-1.69.02-4.16-.86-6.34-2.13-8.01-4.62-13.29-13.94-13.29-22.39s5.35-11.5 13.4-6.84c7.78 4.49 13.1 13.48 13.1 21.51zm-9.89-4.81c0-2.78-1.47-5.2-3.46-6.35-2.02-1.17-3.43-.35-3.43 2.37s1.41 5.23 3.43 6.4c1.99 1.15 3.46.4 3.46-2.41z" fill="#ba68c8"/>
  <path d="M57.67 158.3c0 5.72-2.27 7.68-5.68 5.71-1.88-1.09-3.21-2.81-3.79-4.97-.97 1.23-2.55 1.31-4.74.05-3.57-2.06-6.4-6.96-6.4-11.78s2.8-6.44 6.4-4.37c1.83 1.06 3.27 2.62 4.27 4.57v-1.89l3.77 2.17v10.36c0 1.54.58 2.38 1.33 2.81 1.27.74 2.05-.51 2.05-4.22 0-6.49-4.15-13.37-10.3-16.92-6.18-3.57-10.3-1.09-10.3 5.6s4.04 13.98 10.19 17.53c1.74 1.01 3.71 1.73 5.46 1.74l.89 3.45c-1.69.02-4.16-.86-6.34-2.13-8.01-4.62-13.29-13.94-13.29-22.39s5.35-11.5 13.4-6.84c7.78 4.49 13.1 13.48 13.1 21.51zm-9.89-4.81c0-2.78-1.47-5.2-3.46-6.35-2.02-1.17-3.43-.35-3.43 2.37s1.41 5.23 3.43 6.4c1.99 1.15 3.46.4 3.46-2.41z" fill="#fff" opacity=".9"/>
  <path d="M73.02 209.54l-39.77-22.96c-1.2-.69-2.3-.77-3.17-.35-.11.05-.21.11-.31.18l-8.65 5.07s.04-.02.05-.03c-1.09.62-1.78 2.06-1.78 4.11v44.22c0 3.74 2.27 8.09 5.08 9.71l39.77 22.96c1.36.78 2.59.78 3.5.15a.18.18 0 01-.07.05l8.59-5.04c1.12-.6 1.83-2.06 1.83-4.15v-44.22c0-3.74-2.27-8.09-5.08-9.71z" fill="#2fb583"/>
  <path d="M76.68 213.74c-.92-1.81-2.22-3.36-3.66-4.19l-39.77-22.96c-1.2-.69-2.3-.77-3.17-.35-.11.05-.21.11-.31.18l-8.65 5.07c.9-.54 2.07-.5 3.36.25l39.77 22.96c1.49.86 2.82 2.49 3.75 4.38l8.68-5.34z" fill="#2fb583"/>
  <path d="M69.33 268.62c0 1.98-.64 3.39-1.65 4.04l8.59-5.04c1.12-.6 1.83-2.06 1.83-4.15v-44.22c0-1.82-.54-3.79-1.42-5.52L68 219.07c.82 1.68 1.33 3.57 1.33 5.32v44.22z" fill="#2fb583"/>
  <path d="M76.68 213.74c-.92-1.81-2.22-3.36-3.66-4.19l-39.77-22.96c-1.2-.69-2.3-.77-3.17-.35-.11.05-.21.11-.31.18l-8.65 5.07c.9-.54 2.07-.5 3.36.25l39.77 22.96c1.49.86 2.82 2.49 3.75 4.38l8.68-5.34z" opacity=".3"/>
  <path d="M69.33 268.62c0 1.98-.64 3.39-1.65 4.04l8.59-5.04c1.12-.6 1.83-2.06 1.83-4.15v-44.22c0-1.82-.54-3.79-1.42-5.52L68 219.07c.82 1.68 1.33 3.57 1.33 5.32v44.22z" opacity=".6"/>
  <g fill="#ba68c8">
    <path d="M39.91 229.32l-9.58-15.58v21.11l9.58-5.53zm8.92 4.48l9.57 16.58V229.3l-9.57 4.5zm-17.05-20.75l9.85 16s.08.08.11.13c.02.04.03.08.04.12l2.89 4.69 2.48-1.17s.08-.08.13-.11c.1-.06.21-.09.32-.1l9.96-4.68-25.77-14.88z"/>
    <path d="M47.38 234.49l-2.67 1.26c-.11.05-.23.08-.34.08-.27 0-.53-.14-.68-.38l-2.93-4.76-9.63 5.56 25.89 14.95-9.64-16.69z"/>
  </g>
  <g opacity=".9" fill="#fff">
    <path d="M39.91 229.32l-9.58-15.58v21.11l9.58-5.53zm8.92 4.48l9.57 16.58V229.3l-9.57 4.5zm-17.05-20.75l9.85 16s.08.08.11.13c.02.04.03.08.04.12l2.89 4.69 2.48-1.17s.08-.08.13-.11c.1-.06.21-.09.32-.1l9.96-4.68-25.77-14.88z"/>
    <path d="M47.38 234.49l-2.67 1.26c-.11.05-.23.08-.34.08-.27 0-.53-.14-.68-.38l-2.93-4.76-9.63 5.56 25.89 14.95-9.64-16.69z"/>
  </g>
  <path d="M73.02 51.99L33.25 29.03c-1.2-.69-2.3-.77-3.17-.35-.11.05-.21.11-.31.18l-8.65 5.07s.04-.02.05-.03c-1.09.62-1.78 2.06-1.78 4.11v44.22c0 3.74 2.27 8.09 5.08 9.71l39.77 22.96c1.36.78 2.59.78 3.5.15a.18.18 0 01-.07.05l8.59-5.04c1.12-.6 1.83-2.06 1.83-4.15V61.69c0-3.74-2.27-8.09-5.08-9.71z" fill="#2fb583"/>
  <path d="M76.68 56.18c-.92-1.81-2.22-3.36-3.66-4.19L33.25 29.03c-1.2-.69-2.3-.77-3.17-.35-.11.05-.21.11-.31.18l-8.65 5.07c.9-.54 2.07-.5 3.36.25l39.77 22.96c1.49.86 2.82 2.49 3.75 4.38l8.68-5.34z" fill="#2fb583"/>
  <path d="M69.33 111.07c0 1.98-.64 3.39-1.65 4.04l8.59-5.04c1.12-.6 1.83-2.06 1.83-4.15V61.7c0-1.82-.54-3.79-1.42-5.52L68 61.52c.82 1.68 1.33 3.57 1.33 5.32v44.22z" fill="#2fb583"/>
  <path d="M76.87 56.18c-.92-1.81-2.22-3.36-3.66-4.19L33.44 29.03c-1.2-.69-2.3-.77-3.17-.35-.11.05-.21.11-.31.18l-8.65 5.07c.9-.54 2.07-.5 3.36.25l39.77 22.96c1.49.86 2.82 2.49 3.75 4.38l8.68-5.34z" opacity=".3"/>
  <path d="M69.33 111.07c0 1.98-.64 3.39-1.65 4.04l8.59-5.04c1.12-.6 1.83-2.06 1.83-4.15V61.7c0-1.82-.54-3.79-1.42-5.52L68 61.52c.82 1.68 1.33 3.57 1.33 5.32v44.22z" opacity=".6"/>
  <path d="M56.32 91.99c-1.53-2.51-3.07-5.02-4.6-7.53-.7-1.15-1.49-1.82-2.41-2.02-.74-.16-1.49-.32-2.24-.55-.2-.06-.52-.32-.66-.56-2.55-4.42-4.54-8.95-5.93-13.6-.06-.22-.02-.5.08-.61.47-.47.97-.9 1.47-1.32.62-.52.73-1.39.38-2.65-.74-2.67-1.45-5.34-2.19-8.01-.48-1.75-1.56-3.01-2.86-3.33-1.81-.44-3.45-.38-4.9.18-.61.24-.93.79-.93 1.73.25 1.83.43 3.64.77 5.5 2.47 13.41 8.42 25.77 17.81 37.04.74.89 1.48 1.31 2.23 1.28 1.65-.07 3.06-.61 4.22-1.63.89-.78.8-2.2-.25-3.93zM56.2 78.4c-.16-2.67-.95-5.43-2.36-8.24a24.573 24.573 0 00-3.75-5.51c-.4-.44-.73-.58-.92-.24-.19.34 0 .8.38 1.23l.39.45c2.9 3.52 4.56 7.29 4.98 11.33.03.31-.02.61.09.91.12.32.37.75.59.91.21.15.44 0 .62-.01 0-.39 0-.6-.02-.81zm-9.06-8.21c1.33 1.54 2.03 3.18 2.17 4.96.02.27.24.63.31.8.61.5.91.33.91-.29 0-1.88-1.3-4.84-2.81-6.41-.38-.39-.69-.51-.87-.18-.17.3-.04.74.29 1.12z" fill="#ba68c8"/>
  <path d="M56.32 91.99c-1.53-2.51-3.07-5.02-4.6-7.53-.7-1.15-1.49-1.82-2.41-2.02-.74-.16-1.49-.32-2.24-.55-.2-.06-.52-.32-.66-.56-2.55-4.42-4.54-8.95-5.93-13.6-.06-.22-.02-.5.08-.61.47-.47.97-.9 1.47-1.32.62-.52.73-1.39.38-2.65-.74-2.67-1.45-5.34-2.19-8.01-.48-1.75-1.56-3.01-2.86-3.33-1.81-.44-3.45-.38-4.9.18-.61.24-.93.79-.93 1.73.25 1.83.43 3.64.77 5.5 2.47 13.41 8.42 25.77 17.81 37.04.74.89 1.48 1.31 2.23 1.28 1.65-.07 3.06-.61 4.22-1.63.89-.78.8-2.2-.25-3.93zM56.2 78.4c-.16-2.67-.95-5.43-2.36-8.24a24.573 24.573 0 00-3.75-5.51c-.4-.44-.73-.58-.92-.24-.19.34 0 .8.38 1.23l.39.45c2.9 3.52 4.56 7.29 4.98 11.33.03.31-.02.61.09.91.12.32.37.75.59.91.21.15.44 0 .62-.01 0-.39 0-.6-.02-.81zm-9.06-8.21c1.33 1.54 2.03 3.18 2.17 4.96.02.27.24.63.31.8.61.5.91.33.91-.29 0-1.88-1.3-4.84-2.81-6.41-.38-.39-.69-.51-.87-.18-.17.3-.04.74.29 1.12z" fill="#fff" opacity=".9"/>
  <path d="M276.25 22.15l9.37 5.33v-3.32c-.01-.24-.03-.47-.03-.7s.01-.45.03-.67v-.08c.34-4.39 3.67-6.08 7.73-3.73 1.73 1 3.32 2.58 4.61 4.43.92-5.97 5.79-8.13 11.67-4.73 6.54 3.78 11.84 12.96 11.84 20.51v7.11c0 1.14.61 2.2 1.6 2.78l5.51 3.23a7.967 7.967 0 013.93 6.86c0 2.52-2.73 4.1-4.91 2.83l-51.22-29.59a8.94 8.94 0 01-4.47-7.75c0-2.22 2.4-3.62 4.33-2.52zm71.43-1.39l6.82 3.88v-2.41c-.01-.17-.02-.34-.02-.51s.01-.33.02-.49v-.06c.25-3.2 2.67-4.42 5.62-2.71 1.26.73 2.42 1.88 3.36 3.22.67-4.34 4.21-5.91 8.49-3.44 4.76 2.75 8.61 9.42 8.61 14.92v5.17c0 .83.45 1.6 1.16 2.02l4.01 2.35a5.793 5.793 0 012.86 4.99c0 1.83-1.98 2.98-3.57 2.06l-37.25-21.52a6.51 6.51 0 01-3.25-5.64c0-1.62 1.75-2.63 3.15-1.83z" fill="#e6e6e6"/>
</svg>
