<svg data-name="Layer 2" xmlns="http://www.w3.org/2000/svg" viewBox="0 0 39.54 11.47">
  <path d="M2.47 2.93c.36-.29.9-.46 1.46-.46 1.9 0 3.17 1.39 3.17 3.47S5.83 9.42 3.93 9.42c-.8 0-1.57-.31-2.03-.79l-.18.43c-.05.11-.11.18-.19.18H.18A.18.18 0 010 9.06V.71C0 .63.08.54.18.54h2.11c.1 0 .18.08.18.17v2.22zm0 3.78c.14.4.53.66.95.66.66 0 1.1-.58 1.1-1.44s-.44-1.39-1.1-1.39c-.42 0-.8.26-.95.66v1.51zm7.87-5.47c0 .71-.53 1.19-1.32 1.19S7.7 1.95 7.7 1.24C7.7.5 8.23 0 9.02 0s1.32.49 1.32 1.24zm-.25 1.4c.1 0 .18.08.18.17v6.25c0 .1-.08.18-.18.18H7.98a.18.18 0 01-.18-.18V2.81c0-.08.08-.17.18-.17h2.11zm6.48 0c.18 0 .26.17.18.31l-2.34 4.01h2.12c.11 0 .18.07.18.17v1.94c0 .08-.07.17-.18.17h-5.37c-.18 0-.28-.17-.18-.32l2.34-3.95h-1.85c-.08 0-.17-.08-.17-.18V2.82c0-.1.08-.18.17-.18h5.1zm2.8.61c.46-.48 1.22-.79 2.03-.79 1.9 0 3.17 1.39 3.17 3.48S23.3 9.41 21.4 9.41c-.56 0-1.1-.17-1.46-.46v2.35c0 .08-.08.17-.18.17h-2.11c-.1 0-.18-.08-.18-.17V2.82c0-.1.08-.18.18-.18H19c.08 0 .14.07.19.18l.18.43zm.56 3.43c.14.4.53.66.95.66.66 0 1.1-.55 1.1-1.39s-.44-1.44-1.1-1.44c-.42 0-.8.26-.95.66v1.51zm12.17-.74c0 2.09-1.42 3.48-3.53 3.48s-3.53-1.39-3.53-3.47 1.42-3.48 3.53-3.48 3.53 1.39 3.53 3.47zm-4.71.01c0 .78.48 1.31 1.19 1.31s1.19-.53 1.19-1.32-.48-1.31-1.19-1.31-1.19.53-1.19 1.32zM35.06.54c.1 0 .18.08.18.17v3.98l1.12-1.91c.05-.08.17-.14.28-.14h2.4c.1 0 .13.06.08.14l-1.77 2.94 2.17 3.37c.06.08.01.14-.08.14h-2.55a.34.34 0 01-.25-.14l-1.38-2.37v2.34c0 .1-.08.18-.18.18h-2.11a.18.18 0 01-.18-.18V.71c0-.08.08-.17.18-.17h2.11z" fill="#0f9aa8" data-name="Layer 1"/>
</svg>
