<svg data-name="Layer 2" xmlns="http://www.w3.org/2000/svg" viewBox="0 0 122.05 24.21">
  <g data-name="Layer 1">
    <g fill="#231f20">
      <path d="M45.57 11.18c.74-1.35 2.06-2.13 3.86-2.13s3.13.8 3.87 2.18l4.43-3c-1.81-2.61-4.84-4.2-8.3-4.2s-6.46 1.58-8.28 4.16l4.43 2.99z"/>
      <path d="M53.93 14.35c-.09 2.9-1.76 4.78-4.51 4.78s-4.44-1.91-4.51-4.84l-5.1-3.45c-.32 1.01-.5 2.1-.5 3.26 0 5.92 4.52 10.11 10.11 10.11S59.5 20.02 59.5 14.1c0-1.14-.17-2.21-.48-3.2l-5.1 3.45z"/>
    </g>
    <path d="M68.41 4.47c.5 0 .78.28.89.75l1.98 8.12c.06.28.28.28.34 0l1.98-8.12c.11-.47.39-.75.89-.75h5.78c.56 0 .84.28.84.84v17.87c0 .53-.28.84-.84.84h-3.13c-.53 0-.84-.31-.84-.84v-11c0-.2-.25-.22-.31-.03l-2.71 11.14c-.11.47-.42.73-.92.73h-1.84c-.5 0-.81-.25-.92-.73l-2.71-11.14c-.06-.2-.31-.17-.31.03v11c0 .53-.28.84-.84.84h-3.13c-.56 0-.84-.31-.84-.84V5.31c0-.56.28-.84.84-.84h5.78zm-53.8 14.74c.56 0 .84.28.84.84v3.13c0 .53-.28.84-.84.84H.73c-.67 0-.92-.42-.59-1.01l7.62-13.4c.11-.2.03-.34-.2-.34H2.24c-.53 0-.84-.31-.84-.84V5.3c0-.56.31-.84.84-.84H15.7c.67 0 .92.42.59 1.01l-7.76 13.4c-.11.2-.03.34.2.34h5.89zm73.2-14.74c.56 0 .84.28.84.84v17.87c0 .53-.28.84-.84.84h-3.07c-.53 0-.84-.31-.84-.84V5.31c0-.56.31-.84.84-.84h3.07zm16.2 0c.56 0 .84.28.84.84v3.13c0 .53-.28.84-.84.84h-6.76c-.53 0-.84.28-.84.84v.89c0 .53.31.84.84.84h4.33c.56 0 .84.28.84.84v3.13c0 .53-.28.84-.84.84h-4.33c-.53 0-.84.28-.84.84v.89c0 .53.31.84.84.84h6.76c.56 0 .84.28.84.84v3.13c0 .56-.28.84-.84.84H92.28c-.53 0-.84-.31-.84-.84V5.31c0-.56.31-.84.84-.84h11.73zm16.22 14.74c.56 0 .84.28.84.84v3.13c0 .53-.28.84-.84.84h-13.88c-.67 0-.92-.42-.59-1.01l7.62-13.4c.11-.2.03-.34-.2-.34h-5.33c-.53 0-.84-.31-.84-.84V5.3c0-.56.31-.84.84-.84h13.46c.67 0 .92.42.59 1.01l-7.76 13.4c-.11.2-.03.34.2.34h5.89z" fill="#231f20"/>
    <path d="M30.78 4.51c.18.06.35.13.53.2.68.29 1.37.69 2.08 1.2.19.13.38.28.57.43.15.12.25.18.37.33.18.21.47.51.66.67.06-.09.11-.37.16-.5.62-1.67.37-4.13.14-5.86-.03-.2-.06-.41-.19-.56-.13-.14-.33-.2-.52-.2-.63 0-1.11.56-1.49 1.08-.79 1.06-1.56 2.13-2.31 3.21z" fill="#0db0d3"/>
    <path d="M31.2 4.88c.68.29 1.37.69 2.08 1.2.19.13.38.28.57.43l.45.36c.04-.2.05-.43.06-.55.2-1.39.13-2.74-.05-4.12-.03-.16-.06-.33-.18-.43-.11-.1-.24-.11-.37-.07h-.03c-.01 0-.03.01-.04.02-.01 0-.02 0-.03.01-.04.02-.07.04-.11.06-.01 0-.02.02-.04.02-.01.01-.03.02-.04.03 0 0-.02.01-.03.02-.02.01-.03.03-.05.04-.02.01-.03.03-.04.04l-.06.06c-.47.52-.88 1.1-1.28 1.68-.28.39-.55.79-.83 1.18z" fill="#231f20"/>
    <g fill="#231f20">
      <path d="M23.75 10.95c.76-1.2 2.02-1.9 3.71-1.9 1.88 0 3.24.88 3.96 2.38l4.47-3.02c-1.79-2.72-4.88-4.38-8.42-4.38-3.33 0-6.28 1.49-8.12 3.94l4.41 2.98z"/>
      <path d="M31.94 14.62c-.19 2.74-1.83 4.51-4.49 4.51-2.85 0-4.52-1.98-4.52-5.03 0-.05 0-.1.01-.15l-5-3.38c-.38 1.08-.6 2.26-.6 3.53 0 5.92 4.52 10.11 10.11 10.11s10.08-4.19 10.08-10.11c0-1.06-.15-2.06-.41-2.99l-5.18 3.5z"/>
    </g>
    <path d="M41.28.37c.07.08.16.15.21.23.38.68.68 1.4.93 2.13.12.37.24.74.34 1.11.08.27.11.59.33.8.23.22.65.26.94.38.7.27 1.35.63 1.95 1.08.05.04.11.08.16.12.19.15.37.29.53.47.09.1.16.12.27.03.14-.11.32-.11.48-.17.22-.08.44-.14.63-.26.29-.18.31-.26.16-.58-.23-.49-.5-.95-.82-1.39-1.03-1.41-2.26-2.61-3.8-3.46-.64-.35-1.32-.61-2.04-.72-.11-.02-.38-.08-.34.1 0 .04.03.08.07.12z" fill="#231f20"/>
    <path d="M37.21 6.24c-.02 1.37.52 2.54 1.51 3.53.3.3.63.5.97.61.84.27 1.72-.04 2.34-.78.78-.93 1.17-2.01 1.31-3.2 0-.04.01-.09.02-.13.17-1.56-.06-3.07-.46-4.57-.06-.24-.12-.48-.22-.71a1.13 1.13 0 00-.67-.65c-.74-.28-1.49-.46-2.29-.25-.72.19-1.23.63-1.49 1.32-.48 1.3-.82 2.63-.97 4.01-.03.26-.05.52-.04.82z" fill="#2cb582"/>
    <path d="M38.99 8.62v.54c.03.09.05.18.08.28.11.42.33.73.62.95.84.27 1.72-.04 2.34-.78.78-.93 1.17-2.01 1.31-3.2-.13-.42-.44-.8-.82-.97-.7-.3-1.39-.12-1.74.57-.27.53-.61.96-1.09 1.31-.36.27-.54.7-.65 1.14-.01.06 0 .12-.05.17z" fill="#2cb582"/>
    <path d="M61.47.71c-.07.08-.16.15-.21.23-.38.68-.68 1.4-.93 2.13-.12.37-.24.74-.34 1.11-.08.27-.11.59-.33.8-.23.22-.65.26-.94.38-.7.27-1.35.63-1.95 1.08-.05.04-.11.08-.16.12-.19.15-.37.29-.53.47-.09.1-.16.12-.27.03-.14-.11-.32-.11-.48-.17-.22-.08-.44-.14-.63-.26-.29-.18-.31-.26-.16-.58.23-.49.5-.95.82-1.39 1.03-1.41 2.26-2.61 3.8-3.46.64-.35 1.32-.61 2.04-.72.11-.02.38-.08.34.1 0 .04-.03.08-.07.12z" fill="#231f20"/>
    <path d="M65.54 6.57c.02 1.37-.52 2.54-1.51 3.53-.3.3-.63.5-.97.61-.84.27-1.72-.04-2.34-.78-.78-.93-1.17-2.01-1.31-3.2 0-.04-.01-.09-.02-.13-.17-1.56.06-3.07.46-4.57.06-.24.12-.48.22-.71.14-.33.36-.53.67-.65.74-.28 1.49-.46 2.29-.25.72.19 1.23.63 1.49 1.32.48 1.3.82 2.63.97 4.01.03.26.05.52.04.82z" fill="#2cb582"/>
    <path d="M63.76 8.95v.54c-.03.09-.05.18-.08.28-.11.42-.33.73-.62.95-.84.27-1.72-.04-2.34-.78-.78-.93-1.17-2.01-1.31-3.2.13-.42.44-.8.82-.97.7-.3 1.39-.12 1.74.57.27.53.61.96 1.09 1.31.36.27.54.7.65 1.14.01.06 0 .12.05.17z" fill="#2cb582"/>
  </g>
</svg>
