<svg xmlns="http://www.w3.org/2000/svg" viewBox="0 0 3488.47 2986.46">
  <path d="M158.6 2600.52c0-24.66-19.99-44.65-44.65-44.65h-69.3c-24.66 0-44.65-19.99-44.65-44.65v-67.96c0-15.86 8.73-23.79 23.79-23.79h385.15c24.65 0 44.64 19.99 44.64 44.64v67.96c0 15.07-7.93 23.79-23.79 23.79H318.77c-15.07 0-23.79 7.94-23.79 23.79v371.11c0 15.07-7.94 23.79-23.79 23.79h-67.96c-24.65 0-44.64-19.99-44.64-44.64V2600.5zm918.3 331.23c11.1 20.62-1.58 42.82-26.17 42.82h-90.4c-7.93 0-15.07-3.96-18.24-11.1l-82.47-159.39c-1.58-2.38-3.96-3.96-6.34-3.96h-10.87c-25.09 0-45.44 20.34-45.44 45.44v83.58c0 25.09-20.34 45.44-45.44 45.44h-47.1c-25.09 0-45.44-20.34-45.44-45.44v-464.21c0-25.09 20.34-45.44 45.44-45.44h152.81c141.15 0 198.24 60.27 198.24 190.31 0 73.75-18.24 125.29-60.26 155.42-3.17 2.38-3.96 6.35-2.38 10.31l84.05 156.22zm-234.48-375.87c-25.09 0-45.44 20.34-45.44 45.44v16.97c0 25.09 20.34 45.44 45.44 45.44h19.59c38.06 0 57.1-4.76 57.1-53.92s-19.04-53.92-57.1-53.92h-19.59zm780.63-136.4c24.66 0 44.65 19.99 44.65 44.65v67.96c0 15.07-7.93 23.79-23.79 23.79h-191.9c-15.07 0-23.79 7.94-23.79 23.79v25.38c0 15.07 8.72 23.79 23.79 23.79h102.06c24.66 0 44.65 19.99 44.65 44.65v67.96c0 15.07-7.93 23.79-23.79 23.79h-122.91c-15.07 0-23.79 7.93-23.79 23.79v25.38c0 15.07 8.72 23.79 23.79 23.79h171.05c24.66 0 44.65 19.99 44.65 44.65v47.1c0 24.66-19.99 44.65-44.65 44.65h-291.35c-24.65 0-44.64-19.99-44.64-44.64V2443.3c0-15.86 8.72-23.79 23.79-23.79h312.2zm648.13 528.13c0 17.44-7.93 26.96-23.79 26.96h-88.81c-15.07 0-23.79-7.93-23.79-23.79v-48.14c0-24.65-19.99-44.64-44.64-44.64h-47.34c-15.07 0-23.79 7.93-23.79 23.79v48.14c0 24.66-19.99 44.65-44.65 44.65h-67.96c-15.07 0-23.79-9.52-23.79-26.96V2611.4c0-99.92 15.86-206.18 194.28-206.18s194.28 106.26 194.28 206.18v336.22zm-136.39-336.22c0-38.07-5.55-57.1-57.89-57.1s-57.89 19.03-57.89 57.1v65.58c0 24.65 19.99 44.64 44.64 44.64H2111c15.86-.79 23.79-8.72 23.79-24.58v-85.64zm480.58-10.87c0-24.66-19.99-44.65-44.65-44.65h-69.31c-24.66 0-44.65-19.99-44.65-44.65v-67.96c0-15.86 8.73-23.79 23.79-23.79h385.15c24.65 0 44.64 19.99 44.64 44.64v67.96c0 15.07-7.93 23.79-23.79 23.79h-111.02c-15.07 0-23.79 7.94-23.79 23.79v371.11c0 15.07-7.94 23.79-23.79 23.79h-67.96c-24.66 0-44.65-19.99-44.65-44.65v-329.4zm753.36 15.62c-15.86 3.17-23.79-3.96-26.17-19.82-5.55-32.51-31.72-53.13-68.99-53.13-30.92 0-49.96 18.24-46.79 36.48 11.1 61.85 261.68 60.27 261.68 242.65 0 23.79-26.96 164.14-214.9 164.14-146.66 0-191.84-84.88-203.23-147.38-4.53-24.86 11.66-48.73 36.34-54.19l70.95-15.7c15.86-3.17 24.58 3.96 26.17 20.62 3.17 38.07 32.51 60.27 69.78 60.27s67.41-23 62.64-44.41c-15.07-67.4-253.75-52.33-253.75-234.72-.79-23.79 13.48-164.15 191.11-164.15 163.35 0 201.42 106.26 206.18 163.35.79 14.27-6.35 23-20.62 26.17l-90.4 19.82z" fill="#010101"/>
  <g fill="#2db582">
    <path d="M773.6 57.11c-137.71 0-249.8 16.75-341.09 46.56-13.62 4.45-27.52-5.31-27.52-19.64V55.67c0-30.75-24.93-55.68-55.68-55.68H92.96c-30.76 0-55.69 24.94-55.69 55.69v711.78c0 2.34.26 4.63.7 6.84-.49 21.44-.7 42.87-.7 64.22v1274.32c0 66.11 33.07 102.18 90.17 102.18h361.48s2.6-7.91 3.38-19.59c8.76-131.5 64.62-587.29 70.79-679.94 7.18-107.94 25.55-213.76 70.08-313.86 11.22-25.23 50.47-88.44 62.53-85.9 15.09 3.18 28.04 121.22 39.9 123.31 8.75 1.54 22.23-49.59 35.39-87.02 7.43-21.12 29.43-63.68 38.13-61.91 10.66 2.17 21.79 44.71 27.5 76.12 2.93 16.11 7.18 62.73 23.56 59.7 45.38-8.38 90.71-16.99 136.07-25.51 38.73-7.27 77.45-14.58 116.18-21.84 31.34-5.87 59.29 18.59 59.52 50.48v.47c-.58 30.04-4.63 56.52-11.01 82.66-18.77 76.9-66.53 127.46-144.32 150.58-11.43 3.39-22.81 6.97-34.08 10.82-10.17 3.49-20.06 7.63-28.07 15.06-11.43 10.59 92.71 604.63 118.21 710.5 2.26 9.4 10.59 15.87 20.27 15.87h326.83c60.1 0 90.16-36.07 90.16-102.18V838.52c0-378.68-60.09-781.41-736.33-781.41z"/>
    <path d="M792.93 1300.76c-19.36-.79-33.32 11.9-33.99 30.91-.61 17.62 13.1 32.44 30.8 33.3 19.01.92 34.64-13.28 35.07-31.85.41-17.33-13.67-31.62-31.89-32.36z"/>
  </g>
  <g fill="#11b0d4">
    <path d="M3456.41 102.78c0-66.13-33.21-102.23-90.09-102.23h-292.58c-10.92 0-19.97 8.47-20.75 19.37-44.15 616.88-125.1 1207.52-125.1 1207.52v.91l-85.89-90.97c-4.26-4.51-10.07-6.9-16.26-6.51-22.58 1.42-79.78 4.57-110.78 2.19-6.38-.49-12.58 2.28-16.8 7.1l-39.49 45.17c-12.08 13.81-34.82 6.42-36.47-11.86l-7.09-78.75c-.39-4.37-2.11-8.34-4.98-11.64-16.51-18.98-34.71-44.02-44.16-57.37-4.11-5.81-10.79-9.03-17.9-8.71-21.94 1.01-70.77 2.25-102.71-4.51-9.34-1.98-15.98-9.89-16.36-19.43-2.03-50.72-3.08-166.87 39.34-209.15 19.82-19.74 58.6-30.71 102.74-38.15h1.87c-12.68 0-41.87-4.93-53.77-7.02-3.13-.58-5.41-2.93-5.72-5.99-5.21-52.24-18.21-505.18-53.58-732.2h-385.46c-60.06 0-90.09 36.1-90.09 102.23v1273.71c0 378.56 60.06 781.1 736.05 781.1 137.69 0 249.75-16.85 340.92-46.68 13.62-4.46 27.54 5.3 27.54 19.63v28.14c0 30.81 24.98 55.79 55.79 55.79h256.3c30.66 0 55.51-24.85 55.51-55.51v-711.44c0-2.3-.29-4.62-.58-6.92.29-21.38.58-42.74.58-64.11V102.78z"/>
    <path d="M2757.11 970.19c0 20.82 12.02 37.69 26.86 37.69s26.87-16.87 26.87-37.69-12.03-37.7-26.87-37.7-26.86 16.89-26.86 37.7zm-108.9 0c0 20.82 12.03 37.69 26.86 37.69s26.86-16.87 26.86-37.69-12.03-37.7-26.86-37.7-26.86 16.89-26.86 37.7zm-202.02 20.78h93.89c-1.56-39.14-21.89-69.97-46.09-70.66-24.83-.72-46.19 30.51-47.8 70.66z"/>
  </g>
</svg>
