<svg data-name="Layer 2" xmlns="http://www.w3.org/2000/svg" viewBox="0 0 3488.47 2986.46">
  <g data-name="Layer 1">
    <path d="M158.6 2600.52c0-24.66-19.99-44.65-44.65-44.65h-69.3c-24.66 0-44.65-19.99-44.65-44.65v-67.96c0-15.86 8.73-23.79 23.79-23.79h385.15c24.65 0 44.64 19.99 44.64 44.64v67.96c0 15.07-7.93 23.79-23.79 23.79H318.77c-15.07 0-23.79 7.94-23.79 23.79v371.11c0 15.07-7.94 23.79-23.79 23.79h-67.96c-24.65 0-44.64-19.99-44.64-44.64V2600.5zm918.3 331.23c11.1 20.62-1.58 42.82-26.17 42.82h-90.4c-7.93 0-15.07-3.96-18.24-11.1l-82.47-159.39c-1.58-2.38-3.96-3.96-6.34-3.96h-10.87c-25.09 0-45.44 20.34-45.44 45.44v83.58c0 25.09-20.34 45.44-45.44 45.44h-47.1c-25.09 0-45.44-20.34-45.44-45.44v-464.21c0-25.09 20.34-45.44 45.44-45.44h152.81c141.15 0 198.24 60.27 198.24 190.31 0 73.75-18.24 125.29-60.26 155.42-3.17 2.38-3.96 6.35-2.38 10.31l84.05 156.22zm-234.48-375.87c-25.09 0-45.44 20.34-45.44 45.44v16.97c0 25.09 20.34 45.44 45.44 45.44h19.59c38.06 0 57.1-4.76 57.1-53.92s-19.04-53.92-57.1-53.92h-19.59zm780.63-136.4c24.66 0 44.65 19.99 44.65 44.65v67.96c0 15.07-7.93 23.79-23.79 23.79h-191.9c-15.07 0-23.79 7.94-23.79 23.79v25.38c0 15.07 8.72 23.79 23.79 23.79h102.06c24.66 0 44.65 19.99 44.65 44.65v67.96c0 15.07-7.93 23.79-23.79 23.79h-122.91c-15.07 0-23.79 7.93-23.79 23.79v25.38c0 15.07 8.72 23.79 23.79 23.79h171.05c24.66 0 44.65 19.99 44.65 44.65v47.1c0 24.66-19.99 44.65-44.65 44.65h-291.35c-24.65 0-44.64-19.99-44.64-44.64V2443.3c0-15.86 8.72-23.79 23.79-23.79h312.2zm648.13 528.13c0 17.44-7.93 26.96-23.79 26.96h-88.81c-15.07 0-23.79-7.93-23.79-23.79v-48.14c0-24.65-19.99-44.64-44.64-44.64h-47.34c-15.07 0-23.79 7.93-23.79 23.79v48.14c0 24.66-19.99 44.65-44.65 44.65h-67.96c-15.07 0-23.79-9.52-23.79-26.96V2611.4c0-99.92 15.86-206.18 194.28-206.18s194.28 106.26 194.28 206.18v336.22zm-136.39-336.22c0-38.07-5.55-57.1-57.89-57.1s-57.89 19.03-57.89 57.1v65.58c0 24.65 19.99 44.64 44.64 44.64H2111c15.86-.79 23.79-8.72 23.79-24.58v-85.64zm480.58-10.87c0-24.66-19.99-44.65-44.65-44.65h-69.31c-24.66 0-44.65-19.99-44.65-44.65v-67.96c0-15.86 8.73-23.79 23.79-23.79h385.15c24.65 0 44.64 19.99 44.64 44.64v67.96c0 15.07-7.93 23.79-23.79 23.79h-111.02c-15.07 0-23.79 7.94-23.79 23.79v371.11c0 15.07-7.94 23.79-23.79 23.79h-67.96c-24.66 0-44.65-19.99-44.65-44.65v-329.4zm753.36 15.62c-15.86 3.17-23.79-3.96-26.17-19.82-5.55-32.51-31.72-53.13-68.99-53.13-30.92 0-49.96 18.24-46.79 36.48 11.1 61.85 261.68 60.27 261.68 242.65 0 23.79-26.96 164.14-214.9 164.14-146.66 0-191.84-84.88-203.23-147.38-4.53-24.86 11.66-48.73 36.34-54.19l70.95-15.7c15.86-3.17 24.58 3.96 26.17 20.62 3.17 38.07 32.51 60.27 69.78 60.27s67.41-23 62.64-44.41c-15.07-67.4-253.75-52.33-253.75-234.72-.79-23.79 13.48-164.15 191.11-164.15 163.35 0 201.42 106.26 206.18 163.35.79 14.27-6.35 23-20.62 26.17l-90.4 19.82z" fill="#010101"/>
    <g fill="#2db582">
      <path d="M773.6 57.11c-137.71 0-249.8 16.75-341.09 46.56-13.62 4.45-27.52-5.31-27.52-19.64V55.67c0-30.75-24.93-55.68-55.68-55.68H92.96c-30.76 0-55.69 24.94-55.69 55.69v711.76c0 2.34.26 4.63.7 6.84-.49 21.44-.7 42.87-.7 64.22v1274.32c0 66.11 33.07 102.18 90.17 102.18h361.48s2.6-7.91 3.38-19.59c8.76-131.5 64.62-587.29 70.79-679.94 7.18-107.94 25.55-213.76 70.08-313.86 11.22-25.23 50.47-88.44 62.53-85.9 15.09 3.18 28.04 121.22 39.9 123.31 8.75 1.54 22.23-49.59 35.39-87.02 7.43-21.12 29.43-63.68 38.13-61.91 10.66 2.17 21.79 44.71 27.5 76.12 2.93 16.11 7.18 62.73 23.56 59.7 45.38-8.38 90.71-16.99 136.07-25.51 38.73-7.27 77.45-14.58 116.18-21.84 31.34-5.87 59.29 18.59 59.52 50.48v.47c-.58 30.04-4.63 56.52-11.01 82.66-18.77 76.9-66.53 127.46-144.32 150.58-11.43 3.39-22.81 6.97-34.08 10.82-10.17 3.49-20.06 7.63-28.07 15.06-11.43 10.59 92.71 604.63 118.21 710.5 2.26 9.4 10.59 15.87 20.27 15.87h326.83c60.1 0 90.16-36.07 90.16-102.18V838.52c0-378.68-60.09-781.41-736.33-781.41z"/>
      <path d="M792.93 1300.76c-19.36-.79-33.32 11.9-33.99 30.91-.61 17.62 13.1 32.44 30.8 33.3 19.01.92 34.64-13.28 35.07-31.85.41-17.33-13.67-31.62-31.89-32.36z"/>
    </g>
    <path d="M3456.41 102.78c-.42-23.89-4.96-61.11-31.4-83.37C3403.2 1.05 3375.85.76 3366.32.55c-1.43-.03-113.42-.04-336.34-.04-50.06 198.69-103.71 399.05-159.59 595.89a20519.59 20519.59 0 01-62.24 214.83c6.93 1.04 13.91 2.36 20.75 3.94 26.08 6.02 67.13 21.99 104.16 48.77 24.29 17.57 43.74 39.02 57.79 63.77 2.42 4.26 4.56 5.76 8.16 5.76 1.03 0 2.22-.13 3.62-.38 17.9-3.31 36.13-6.1 53.76-8.8 6.27-.96 12.47-1.91 18.67-2.89.34-.05.68-.11 1.02-.17 1.21-.21 2.45-.42 3.66-.42.51 0 .97.04 1.41.11.89.15 1.84.26 2.76.36 5.12.59 10.4 1.19 11.72 8.36 1.88 10.2-6.94 13.22-10.82 14.05-13.48 2.87-27.27 5.19-40.61 7.43-5.03.84-10 1.68-14.96 2.55-5 .87-10.01 1.72-15.2 2.59l-8.13 1.37c.58 2.07 1.1 4.12 1.61 6.1 1.4 5.46 2.73 10.62 4.81 15.4 1.01 2.33 5.49 4.48 8.3 4.54 4.45.09 9.28.13 15.22.13 3.35 0 6.69-.01 10.04-.03h.12c3.39-.01 6.78-.03 10.16-.03 7.99 0 17.45.06 27.1.54 4.62.23 9.13 2.62 13.49 4.93 1.96 1.04 3.98 2.11 5.98 2.97l.09.04.21.24.05 8.67-.43.13c-2.58.76-5.19 1.7-7.72 2.61-5.64 2.03-11.46 4.12-17.33 4.42-7.48.39-15.62.57-25.61.57-5.71 0-11.53-.06-17.15-.11h-.31c-5.54-.06-11.23-.12-16.86-.12v28.57c4.96.75 9.88 1.47 14.77 2.19l.94.14c14.15 2.08 27.51 4.04 41.09 6.39 6.12 1.06 12.02 3.27 16.61 6.21 2.66 1.71 4.88 7.31 4.16 10.52-.7 3.13-4.93 7.14-8.23 7.8-1.99.4-4.14.59-6.56.59-3.51 0-7.05-.42-10.36-.86-13.98-1.9-27.8-3.98-41.15-5.98l-.56-.08c-4.7-.71-9.33-1.4-13.85-2.07-2.23 5.26-4.3 10.46-6.3 15.49l-.04.11c-4.78 12.05-9.29 23.43-15.37 34.06-7.91 13.85-10.66 24.94-9.47 38.27.27 2.98 6.26 73.55-15.03 131.61-5.57 15.19-13.29 29.99-22.94 43.99l-.19.28-19.4-19.01c-26.27-25.75-53.43-52.38-80.34-78.36-1.56-1.5-4.75-2.59-7.6-2.59-.72 0-1.38.07-1.95.21-26 6.4-52.34 9.64-78.29 9.64s-52.23-3.23-78.19-9.61c-.42-.1-.89-.15-1.39-.15-2.95 0-7.1 1.77-9.46 4.04-20.08 19.28-40.27 39.03-59.8 58.12l-1.16 1.13c-9.11 8.91-18.23 17.82-27.36 26.71-4.78 4.65-9.2 7.01-13.14 7.01-5.41 0-9.54-4.48-11.93-12.96-6.37-22.62-12.98-46.76-17.6-71.36-5.03-26.75-7-50.65-6.03-73.05 1.53-35.3-6.7-53.1-14.95-65.85-5.07-7.84-8-16.79-11.11-26.26-1.33-4.06-2.69-8.18-4.2-12.16-4.83.73-9.67 1.47-14.51 2.21l-.91.14c-13.92 2.13-28.32 4.33-42.72 6.38l-.55.08c-3.36.48-6.83.98-10.24.98-1.89 0-3.58-.15-5.15-.46-3.82-.76-9.1-4.39-9.61-7.4-.61-3.64 1.94-10.39 5.13-11.86 6.63-3.06 14.44-5.34 24.55-7.16 15.6-2.81 31.08-4.82 44.16-6.42 5.14-.63 7.84-2.07 7.39-7.91-.36-4.71-.28-9.49-.2-14.56v-.13c.04-2.12.07-4.31.08-6.59-6.16 0-12.26.06-18.17.12h-.29c-5.83.06-11.86.12-17.85.12-10.37 0-18.8-.18-26.53-.57-6.09-.31-12.14-2.4-18-4.42-2.64-.91-5.36-1.85-8.05-2.62l-.43-.12v-8.81l.27-.11c2.19-.89 4.31-1.96 6.37-3 4.62-2.33 9.39-4.74 14.22-4.94 9.29-.38 19.5-.56 32.12-.56 6.67 0 13.62.05 19.75.09h.6c6.3.05 12.62.09 18.97.09l7.65-25.89c-6.05-.97-12.05-1.92-18.01-2.87l-.14-.02c-15.88-2.52-30.88-4.9-46.16-7.58-7.32-1.29-15.03-2.94-21.81-6.29-3.4-1.68-6.12-8.02-5.74-11.7.32-3.1 5.89-7.89 9.18-7.89 11.74.1 23.52 1.67 32.48 3.03 8.06 1.22 16.21 2.64 24.1 4.02 9.78 1.71 19.8 3.45 29.69 4.84.31.04.65.06 1 .06 3.07 0 7.46-1.6 8.76-3.75 12.3-20.31 27.12-38.4 44.05-53.78 29.64-26.93 76.48-44.06 104.46-54.29 6.15-2.25 11.43-4.18 15.14-5.73l9.13-5.9c-22.95-90.72-46.01-182.86-68.53-273.88-43.9-177.44-87.48-357.53-129.64-535.78-127.03 0-268.01.01-422.96.02-5.51 0-23.64-1.29-39.74 9.66-28.28 19.24-31.97 63.1-30.67 96.49-9.74 542.63-10.42 1023.45-8.56 1440.32.45 100.53 4.18 252.19 103.48 381.59 97.79 127.44 281.94 228.98 621.45 228.98 137.69 0 249.75-16.85 340.92-46.68 13.62-4.46 27.54 5.3 27.54 19.63v28.14c0 30.81 24.98 55.79 55.79 55.79h256.3c30.66 0 55.51-24.85 55.51-55.51v-711.44c0-2.3-.29-4.62-.58-6.92.29-21.38.58-42.74.58-64.11V102.78z" fill="#11b0d4"/>
    <ellipse cx="2673.01" cy="1093.45" rx="21.73" ry="40.09" fill="#11b0d4"/>
    <ellipse cx="2839.56" cy="1093.45" rx="21.73" ry="40.09" fill="#11b0d4"/>
  </g>
</svg>
