<svg xmlns="http://www.w3.org/2000/svg" data-name="Layer 2" viewBox="0 0 179.18 156.23">
  <g data-name="Layer 1">
    <path d="M129.43 107.77c0-13.56-.03-27.13.01-40.69.03-8.33 2.55-11.97 10.23-15.01 9.39-3.72 18.75-7.54 28.21-11.07 6.79-2.53 11.19.43 11.22 7.68.12 27.13.03 54.26.07 81.39 0 4.17-1.82 6.88-5.65 8.41-13.38 5.35-26.77 10.68-40.11 16.12-4.18 1.7-3.98-1.03-3.98-3.64-.01-14.39 0-28.78 0-43.18zm-129.4-.54c0-12.58-.05-25.17.02-37.75.04-8.02 1.54-10.12 8.88-13.03 9.71-3.84 19.48-7.56 29.12-11.56 3.64-1.51 4.88-.58 6.48 3.04 4.83 10.91 5.6 22.19 5.34 33.89-.39 17.54-.21 35.1-.03 52.65.05 4.29-1.39 6.56-5.49 8.09-10.55 3.95-20.9 8.46-31.41 12.53-7.89 3.05-12.7-.11-12.84-8.62-.22-13.08-.06-26.16-.06-39.24H.02z" fill="#c3c3c3"/>
    <path d="M89.62 0c28.84 1.31 44.14 28.45 34.12 50.95-7.4 16.62-17.85 31.27-29.1 45.4-2.56 3.21-6.51 3.73-9.08.52-12.92-16.16-26.1-32.4-31.74-52.75C48.39 24.53 63.28 3.55 83.49.8c2.29-.31 4.59-.6 6.13-.8z" fill="#2c2c2c"/>
    <path d="M60.76 80.73c3.01 4.21 5.46 7.69 7.97 11.13 2.05 2.81 4.12 5.61 6.29 8.33 9.55 12 20.53 11.84 29.87-.45 4.5-5.91 8.85-11.93 13.3-17.95 1.97.96 1.21 2.65 1.22 3.94.06 21.52.06 43.05.03 64.57 0 5.65-.33 5.88-5.63 4.38-16.42-4.67-32.83-9.41-49.26-14.03-2.81-.79-4.81-1.8-4.8-5.23.09-17.38.05-34.77.09-52.15 0-.45.31-.89.92-2.54z" fill="#c3c3c3"/>
    <path d="M89.68 22.35c6.9-.08 12.72 5.7 12.63 12.53-.08 6.66-5.68 12.21-12.4 12.29-6.81.08-12.3-5.23-12.44-12.05-.15-7.15 5.14-12.69 12.21-12.77z" fill="#fff"/>
  </g>
</svg>
