<svg xmlns="http://www.w3.org/2000/svg" version="1.1" x="0" y="0" xml:space="preserve" viewBox="0 0 512 512">
  <path d="M210.322 221.321H11c-6.075 0-11-4.925-11-11V11C0 4.925 4.925 0 11 0h199.322c6.075 0 11 4.925 11 11v199.321c0 6.075-4.925 11-11 11zM22 199.321h177.322V22H22v177.321z"/>
  <path d="M501 221.321H301.677c-6.075 0-11-4.925-11-11V11c0-6.075 4.925-11 11-11H501c6.075 0 11 4.925 11 11v199.321c0 6.075-4.925 11-11 11zm-188.323-22H490V22H312.677v177.321zM210.322 512H11c-6.075 0-11-4.925-11-11V301.678c0-6.075 4.925-11 11-11h199.322c6.075 0 11 4.925 11 11V501c0 6.075-4.925 11-11 11zM22 490h177.322V312.678H22V490z" fill="#3cc"/>
  <path d="M501 512H301.677c-6.075 0-11-4.925-11-11V301.678c0-6.075 4.925-11 11-11H501c6.075 0 11 4.925 11 11V501c0 6.075-4.925 11-11 11zm-188.323-22H490V312.678H312.677V490z"/>
</svg>
