<svg xmlns="http://www.w3.org/2000/svg" data-name="Layer 2" viewBox="0 0 168.91 159.06">
  <g data-name="Layer 1">
    <g data-name="0EIYlO.tif">
      <path d="M14.46 67.74C.81 62.08-4.65 45.34 4.56 30.92c5.43-8.5 10.9-16.99 16.25-25.54C23.14 1.65 26.29 0 30.71 0c35.8.06 71.61.06 107.41 0 4.37 0 7.55 1.52 9.9 5.32 5.4 8.72 11.12 17.24 16.51 25.96 9.22 14.91 3.02 31.33-10.59 36.51-3.81 5.29-9.05 4.35-14.35 3.37-1.81-.33-3.42-1.13-5.13-1.69-.48-.09-1.09-.02-1.44-.28-5.57-4.31-10.46-3.14-16.57.01-8.6 4.44-18.01 3.85-26.52-1.44-3.77-2.35-6.79-2.5-10.85-.09-8.76 5.21-18.3 5.97-27.47 1.14-5.4-2.84-10.17-4.57-15.29.06-.6.54-1.57.42-2.39.6a28.5 28.5 0 01-10.05 2.4c-3.82.21-7.25-.59-9.43-4.15z" fill="#2c2c2c"/>
      <path d="M134.09 67.42c6.58 1.86 13.18 2.9 19.85.38-.01 23.01 0 46.02-.04 69.02-.03 14.11-8.07 22.18-22.24 22.2-31.17.05-62.34.04-93.51 0-15.5-.01-23.43-7.91-23.53-23.76-.14-21.35-.04-42.71-.05-64.06 0-1.16-.07-2.32-.11-3.47 6.67 2.62 13.29 1.43 19.91-.21 3.05 1.56 2.38 4.51 2.43 7.01.21 10.74.02 21.48.11 32.22.07 8.23 1.78 10.02 9.87 10.04 24.99.06 49.99.07 74.98 0 7.86-.02 9.64-1.84 9.71-9.69.1-10.91-.09-21.81.11-32.72.05-2.51-.56-5.46 2.51-6.97z" fill="#c3c3c3"/>
      <path d="M134.09 68.36c-.02 17.62-.19 35.24.02 52.86.07 5.52-1.55 7.28-6.3 7.25-29.01-.19-58.03-.23-87.04.02-5.19.04-6.46-2.14-6.4-7.72.22-17.42.03-34.86 0-52.28 5.52-5.92 10.12-7.36 17.63-1.61 9.48 7.25 20.38 5.1 29.43-3.56 2.45-2.34 3.65-2.23 6.01.11 9.85 9.78 24.71 9.69 34.57-.17 2.18-2.18 3.45-2.71 5.65-.16 1.83 2.12 4.26 3.53 6.43 5.26z" fill="#fff"/>
    </g>
  </g>
</svg>
