<svg viewBox="0 0 499.907 499.907" xmlns="http://www.w3.org/2000/svg">
  <path d="M405.199 17.705c-46.872 1.963-93.212 1.97-140.014 4.343-60.037 1.965-120.322 2.169-180.408 1.359-22.176-.443-48.294-3.941-64.559 14.682-7.113 8.595-14.224 20.45-14.043 32.459-.039 11.708 1.05 22.193.695 33.589a9.183 9.183 0 00.247 2.233c-8.109 28.032-4.461 105.484-5.504 114.776.5 40.263 1.81 81.41.564 121.629-7.308 53.603 1.999 103.882 55.341 128.912 85.071 25.273 173.71.048 259.941 6.544 55.818-3.938 139.187 17.696 170.053-44.706 3.404-10.53 14.156-32.044-.783-36.319a8.46 8.46 0 00-9.279 7.552c-8.274 76.994-104.702 51.164-158.679 54.606-73.908-6.93-148.717 9.686-221.994-4.263-68.45-9.941-70.905-60.39-64.504-117.429 1.239-38.901-1.127-78.676-3.38-117.53-2.132-32.288-3.947-64.56-4.758-96.824 16.471 1.223 36.142 2.712 51.168 3.443 37.098 2.008 79.818 3.178 116.985 3.814 77.619 1.269 156.01 1.298 233.424-3.477 5.545-.926 26.023-.82 42.784-2.759-.761 50.631-.36 102.204 5.41 152.676 1.121 9.062 2.9 20.222 4.598 29.207 1.445 9.936 17.477 8.569 16.825-1.79-2.875-76.387 3.341-153.252 4.527-229.726 1.922-56.627-51.253-60.681-94.657-57.001zM359.7 47.257c15.862-5.234 37.25 6.93 35.343 25.136-1.961 17.341-15.578 28.393-32.93 24.137-27.166-5.335-27.173-40.638-2.413-49.273zm106.947 28.244c-4.008 22.462-47.45 23.887-46.352-1.934-1.297-30.901 52.462-30.661 46.352 1.934zM206.762 109.2c-43.23 1.286-87.907 1.406-131.071-.044-8.565 1.638-34.843-3.652-51.895-3.137-.006-.489-.019-.977-.025-1.466.003-.081.013-.156.013-.239.381-11.401-.841-23.415-.541-34.534 2.251-19.756 21.46-32.484 40.868-29.01 66.44 2.063 135.062 3.038 201.467 2.48 20.593-.103 43.039-.49 65.151-.293-9.616 10.732-15.078 25.762-14.211 39.847 1.168 7.26 3.412 13.63 6.44 19.121-38.791 2.171-77.568 5.4-116.196 7.275z" fill="#41efcd"/>
  <path d="M369.254 286.611c.707-79.669-90.289-126.884-159.744-97.669-92.133 31.516-83.555 174.203 1.083 209.912 79.392 36.061 165.792-25.439 158.661-112.243zm-23.832-2.938c-12.634-.461-25.346-.858-38.053-1.276-3.69-25.143-4.449-52.108-15.596-75.158 30.736 13.049 54.337 40.315 53.649 76.434zm-58.578 60.689c-3.332 23.229-13.89 33.743-24.921 34.604-.364.02-.728.039-1.092.055-15.29.314-31.06-17.656-29.447-45.877-.045-8.138-1.807-16.942-2.493-25.317 5.979-.62 11.94-1.444 17.864-2.436 13.452-2.082 26.99-2.939 40.54-3.501 1.215 19.827.928 36.568-.451 42.472zm-36.923-133.929c20.401-14.027 31.237 29.654 35.677 71.206-6.632-.248-13.25-.512-19.836-.814-10.944-.517-21.938-1.066-32.943-1.425 1.916-24.092-.871-51.225 17.102-68.967zm-34.684-5.324a88.992 88.992 0 015.879-2.06c-2.488 3.505-4.528 7.283-5.977 11.216-9.412 21.322-11.376 42.992-10.12 64.793-14.981.188-29.923 1.103-44.734 3.346 1.3-33.903 20.156-66.445 54.952-77.295zm-45.741 122.359c-3.633-7.521-6.181-15.506-7.678-23.662 4.994 1.318 10.016 2.292 15.034 3.095 10.44 1.683 20.976 2.32 31.513 2.166 2.112 13.88 4.745 27.773 6.828 41.624 1.167 7.534 3.544 15.481 7.149 22.696-22.768-7.841-42.607-23.538-52.846-45.919zm148.221 28.609c-5.335 5.053-11.257 9.241-17.586 12.598 8.824-19.54 9.704-45.345 8.624-67.548 11.768-.37 23.68-.624 35.488-.481-2.765 20.809-11.014 41.013-26.526 55.431z" fill="#80aeff"/>
</svg>
