<svg data-name="Layer 2" xmlns="http://www.w3.org/2000/svg" viewBox="0 0 649.25 128.8">
  <g data-name="Capa 1">
    <path d="M127.51 24.49c-.94.31-1.89.67-2.83 1.07-3.61 1.52-7.27 3.67-11.08 6.38-1 .72-2.02 1.47-3.05 2.27-.8.62-1.31.96-1.98 1.74-.97 1.12-2.5 2.73-3.5 3.58-.34-.48-.6-1.99-.84-2.64-3.31-8.88-1.95-21.97-.73-31.17.14-1.05.33-2.17 1.02-2.96.68-.77 1.75-1.08 2.76-1.07 3.37.03 5.9 2.99 7.93 5.72 4.19 5.62 8.29 11.32 12.3 17.07z" fill="#08afd3"/>
    <path d="M125.25 26.43c-3.61 1.52-7.27 3.67-11.08 6.38-1 .72-2.02 1.47-3.05 2.27-.8.62-1.61 1.25-2.42 1.89-.19-1.07-.24-2.27-.33-2.91-1.04-7.38-.67-14.56.25-21.94.14-.84.33-1.75.94-2.31.57-.52 1.25-.58 1.95-.36a5.576 5.576 0 01.38.14c.06.02.11.05.16.08.2.1.39.21.58.34.07.04.13.09.19.13.08.06.16.11.23.18.04.03.09.07.13.11 0 0 .01 0 .02.01.09.07.17.14.25.22.08.07.16.15.24.23.11.11.21.22.31.32 2.5 2.77 4.67 5.86 6.83 8.94l4.41 6.27z" fill="#231f20"/>
    <g fill="#231f20">
      <path d="M242.39 59.48c3.92-7.18 10.98-11.33 20.53-11.33s16.67 4.25 20.59 11.57l23.58-15.95c-9.63-13.89-25.73-22.36-44.18-22.36s-34.36 8.38-44.07 22.14l23.54 15.92z"/>
      <path d="M286.88 76.34c-.49 15.42-9.39 25.43-23.97 25.43s-23.62-10.14-23.99-25.74l-27.1-18.33c-1.71 5.36-2.67 11.16-2.67 17.34 0 31.49 24.06 53.76 53.76 53.76s53.61-22.28 53.61-53.76c0-6.06-.9-11.76-2.53-17.04l-27.12 18.34z"/>
    </g>
    <path d="M77.72 102.22c2.97 0 4.46 1.49 4.46 4.46v16.63c0 2.82-1.49 4.46-4.46 4.46H3.9c-3.56 0-4.9-2.23-3.12-5.35l40.55-71.29c.59-1.04.15-1.78-1.04-1.78H11.92c-2.82 0-4.46-1.63-4.46-4.46V28.26c0-2.97 1.63-4.46 4.46-4.46h71.59c3.56 0 4.9 2.23 3.12 5.35l-41.29 71.29c-.59 1.04-.15 1.78 1.04 1.78h31.34zM363.91 23.8c2.67 0 4.16 1.49 4.75 4.01l10.54 43.22c.3 1.49 1.49 1.49 1.78 0l10.54-43.22c.59-2.52 2.08-4.01 4.75-4.01h30.74c2.97 0 4.46 1.49 4.46 4.46v95.05c0 2.82-1.49 4.46-4.46 4.46h-16.63c-2.82 0-4.46-1.63-4.46-4.46V64.79c0-1.04-1.34-1.19-1.63-.15l-14.41 59.26c-.59 2.53-2.23 3.86-4.9 3.86h-9.8c-2.67 0-4.31-1.34-4.9-3.86l-14.41-59.26c-.3-1.04-1.63-.89-1.63.15v58.52c0 2.82-1.49 4.46-4.46 4.46h-16.63c-2.97 0-4.46-1.63-4.46-4.46V28.25c0-2.97 1.49-4.46 4.46-4.46h30.74zm103.22 0c2.97 0 4.46 1.49 4.46 4.46v95.05c0 2.82-1.49 4.46-4.46 4.46h-16.34c-2.82 0-4.46-1.63-4.46-4.46V28.25c0-2.97 1.63-4.46 4.46-4.46h16.34zm86.14 0c2.97 0 4.46 1.49 4.46 4.46v16.63c0 2.82-1.49 4.46-4.46 4.46h-35.94c-2.82 0-4.46 1.49-4.46 4.46v4.75c0 2.82 1.63 4.45 4.46 4.45h23.02c2.97 0 4.46 1.49 4.46 4.46V84.1c0 2.82-1.49 4.46-4.46 4.46h-23.02c-2.82 0-4.46 1.49-4.46 4.46v4.75c0 2.82 1.63 4.46 4.46 4.46h35.94c2.97 0 4.46 1.49 4.46 4.46v16.63c0 2.97-1.49 4.46-4.46 4.46h-62.38c-2.82 0-4.46-1.63-4.46-4.46V28.25c0-2.97 1.63-4.46 4.46-4.46h62.38zm86.29 78.42c2.97 0 4.46 1.49 4.46 4.46v16.63c0 2.82-1.49 4.46-4.46 4.46h-73.81c-3.56 0-4.9-2.23-3.12-5.35l40.55-71.29c.59-1.04.15-1.78-1.04-1.78h-28.37c-2.82 0-4.46-1.63-4.46-4.46V28.26c0-2.97 1.63-4.46 4.46-4.46h71.58c3.56 0 4.9 2.23 3.12 5.35l-41.29 71.29c-.59 1.04-.15 1.78 1.04 1.78h31.34z" fill="#231f20"/>
    <path d="M163.71 24.02c.94.31 1.89.67 2.83 1.07 3.61 1.52 7.27 3.67 11.08 6.38 1 .72 2.02 1.47 3.05 2.27.8.62 1.31.96 1.98 1.74.97 1.12 2.5 2.73 3.5 3.58.34-.48.6-1.99.84-2.64 3.31-8.88 1.95-21.97.73-31.17-.14-1.05-.33-2.17-1.02-2.96-.68-.77-1.75-1.08-2.76-1.07-3.37.03-5.9 2.99-7.93 5.72-4.19 5.62-8.29 11.32-12.3 17.07z" fill="#08afd3"/>
    <path d="M165.97 25.95c3.61 1.52 7.27 3.67 11.08 6.38 1 .72 2.02 1.47 3.05 2.27.8.62 1.61 1.25 2.42 1.89.19-1.07.24-2.27.33-2.91 1.04-7.38.67-14.56-.25-21.94-.14-.84-.33-1.75-.94-2.31-.57-.52-1.25-.58-1.95-.36-.05.01-.1.03-.15.05-.08.03-.16.06-.23.09-.06.02-.11.05-.16.08-.2.1-.39.21-.58.34-.07.04-.13.09-.19.13-.08.06-.16.11-.23.18-.04.03-.09.07-.13.11 0 0-.01 0-.02.01-.09.07-.17.14-.25.22-.08.07-.16.15-.24.23-.11.11-.21.22-.31.32-2.5 2.77-4.67 5.86-6.83 8.94l-4.41 6.27z" fill="#231f20"/>
    <g fill="#231f20">
      <path d="M126.33 58.25c4.04-6.38 10.75-10.09 19.71-10.09 9.99 0 17.26 4.69 21.06 12.63l23.76-16.07c-9.54-14.45-25.95-23.3-44.82-23.3-17.72 0-33.38 7.92-43.18 20.96l23.47 15.87z"/>
      <path d="M169.9 77.78c-1 14.58-9.75 23.99-23.86 23.99-15.15 0-24.06-10.54-24.06-26.73 0-.28.05-.53.06-.8L95.47 56.27c-2.03 5.76-3.18 12.04-3.18 18.78 0 31.49 24.06 53.76 53.76 53.76s53.61-22.28 53.61-53.76c0-5.62-.79-10.93-2.2-15.89l-27.55 18.63z"/>
    </g>
    <path d="M219.6 1.99c.35.43.85.81 1.1 1.24 2.04 3.6 3.62 7.43 4.94 11.35.66 1.96 1.25 3.93 1.81 5.92.41 1.45.61 3.15 1.75 4.24 1.22 1.17 3.44 1.4 5 2a42.51 42.51 0 0110.36 5.74c.29.22.58.44.86.66.99.78 1.99 1.56 2.84 2.5.46.51.84.64 1.45.15.72-.57 1.7-.6 2.56-.91 1.15-.42 2.32-.73 3.37-1.4 1.52-.97 1.66-1.39.86-3.07-1.23-2.6-2.69-5.07-4.38-7.38-5.48-7.5-12-13.88-20.19-18.39-3.4-1.87-7-3.23-10.85-3.85-.59-.1-2.04-.44-1.82.56.05.23.18.44.35.65z" fill="#231f20"/>
    <path d="M197.92 33.2c-.12 7.28 2.76 13.51 8.03 18.76 1.62 1.61 3.37 2.68 5.15 3.25 4.49 1.45 9.16-.23 12.44-4.14 4.13-4.92 6.22-10.71 6.99-17.03.03-.24.06-.48.08-.72.88-8.28-.31-16.33-2.45-24.29-.34-1.27-.63-2.53-1.17-3.77-.75-1.73-1.9-2.81-3.58-3.45-3.95-1.51-7.93-2.47-12.2-1.32-3.85 1.03-6.56 3.36-7.92 7.01-2.58 6.89-4.39 13.99-5.15 21.33-.14 1.37-.27 2.74-.22 4.35z" fill="#2bb481"/>
    <path d="M207.4 45.84v2.86c.14.49.29.97.42 1.46.6 2.24 1.74 3.88 3.29 5.05 4.49 1.45 9.16-.23 12.44-4.14 4.13-4.92 6.22-10.71 6.99-17.03-.7-2.24-2.32-4.27-4.37-5.15-3.72-1.59-7.41-.62-9.27 3.01-1.45 2.84-3.26 5.09-5.78 6.96-1.94 1.44-2.88 3.71-3.45 6.08-.07.3 0 .65-.27.88z" fill="#2bb481"/>
    <path d="M326.97 3.75c-.35.43-.85.81-1.1 1.24-2.04 3.6-3.62 7.43-4.94 11.35-.66 1.96-1.25 3.93-1.81 5.92-.41 1.45-.61 3.15-1.75 4.24-1.22 1.17-3.44 1.4-5 2a42.51 42.51 0 00-10.36 5.74c-.29.22-.58.44-.86.66-.99.78-1.99 1.56-2.84 2.5-.46.51-.84.64-1.45.15-.72-.57-1.7-.6-2.56-.91-1.15-.42-2.32-.73-3.37-1.4-1.52-.97-1.66-1.39-.86-3.07 1.23-2.6 2.69-5.07 4.38-7.38 5.48-7.5 12-13.88 20.19-18.39 3.4-1.87 7-3.23 10.85-3.85.59-.1 2.04-.44 1.82.56-.05.23-.18.44-.35.65z" fill="#231f20"/>
    <path d="M348.65 34.97c.12 7.28-2.76 13.51-8.03 18.76-1.62 1.61-3.37 2.68-5.15 3.25-4.49 1.45-9.16-.23-12.44-4.14-4.13-4.92-6.22-10.71-6.99-17.03-.03-.24-.06-.48-.08-.72-.88-8.28.31-16.33 2.45-24.29.34-1.27.63-2.53 1.17-3.77.75-1.73 1.9-2.81 3.58-3.45 3.95-1.51 7.93-2.47 12.2-1.32 3.85 1.03 6.56 3.36 7.92 7.01 2.58 6.89 4.39 13.99 5.15 21.33.14 1.37.27 2.74.22 4.35z" fill="#2bb481"/>
    <path d="M339.18 47.6v2.86c-.14.49-.29.97-.42 1.46-.6 2.24-1.74 3.88-3.29 5.05-4.49 1.45-9.16-.23-12.44-4.14-4.13-4.92-6.22-10.71-6.99-17.03.7-2.24 2.32-4.27 4.37-5.15 3.72-1.59 7.41-.62 9.27 3.01 1.45 2.84 3.26 5.09 5.78 6.96 1.94 1.44 2.88 3.71 3.45 6.08.07.3 0 .65.27.88z" fill="#2bb481"/>
  </g>
</svg>
